<!-- Generator: visioncortex VTracer 0.6.12 -->
<svg viewBox="0 0 1084 1188" version="1.1" xmlns="http://www.w3.org/2000/svg" width="1084" height="1188">
<path d="M0 0 C2 1 2 1 2.7902832 3.16699219 C3.04124756 4.11735352 3.29221191 5.06771484 3.55078125 6.046875 C3.8346167 7.10986816 4.11845215 8.17286133 4.41088867 9.26806641 C4.70842041 10.41710449 5.00595215 11.56614258 5.3125 12.75 C5.62227783 13.91837402 5.93205566 15.08674805 6.2512207 16.29052734 C7.72087335 21.88258037 9.13307513 27.48241149 10.4296875 33.1171875 C10.64455811 34.05079102 10.85942871 34.98439453 11.08081055 35.94628906 C11.47294496 37.67767688 11.85531194 39.41131881 12.22583008 41.14746094 C14.25359731 50.19712282 18.44625216 56.99451222 23.9375 64.375 C27.47620522 69.14223495 30.97126512 73.89262037 34.1796875 78.890625 C40.86059286 89.11603194 46.64955958 94.68233069 58.0234375 99.17333984 C61.3080016 100.54704711 64.39017812 102.2741008 67.5 104 C68.03109375 104.28875 68.03109375 104.28875 70.71875 105.75 C71.4715625 106.1625 72.224375 106.575 73 107 C73 107.66 73 108.32 73 109 C72.29617188 109.27972656 71.59234375 109.55945313 70.8671875 109.84765625 C62.68051983 113.17148608 54.86193828 116.98336809 47 121 C46.00742187 121.38800781 45.01484375 121.77601563 43.9921875 122.17578125 C39.66428464 124.81433299 37.34022135 128.42993605 34.5 132.5625 C33.92540039 133.38242432 33.35080078 134.20234863 32.75878906 135.04711914 C31.15453268 137.3530661 29.57209588 139.67204732 28 142 C27.38640625 142.90492188 26.7728125 143.80984375 26.140625 144.7421875 C24.63827311 147.11387785 23.30437165 149.51299806 22 152 C21.64953613 152.6604834 21.29907227 153.3209668 20.93798828 154.00146484 C15.7188246 163.96414883 11.79671238 173.21715613 10.33447266 184.47460938 C9.75633893 188.83972999 9.08089752 193.19061776 8.42700195 197.54492188 C7.74324915 202.13432147 7.08571017 206.72736308 6.43310547 211.32128906 C6.06536642 213.59571567 5.60328667 215.77847779 5 218 C4.34 218 3.68 218 3 218 C2.84144531 216.91847656 2.68289063 215.83695313 2.51953125 214.72265625 C1.06782124 205.06238008 -0.61263022 195.45993374 -2.5 185.875 C-2.70133545 184.83351807 -2.9026709 183.79203613 -3.11010742 182.71899414 C-5.10529932 172.75583974 -7.77204455 164.61669477 -13.3125 156.0625 C-13.82723877 155.25490234 -14.34197754 154.44730469 -14.87231445 153.61523438 C-19.38060439 146.67546936 -24.35026207 140.13936989 -29.54223633 133.69946289 C-30.10966553 132.99426514 -30.67709473 132.28906738 -31.26171875 131.5625 C-31.76662842 130.94503906 -32.27153809 130.32757813 -32.79174805 129.69140625 C-34 128 -34 128 -35 125 C-36.99129327 124.30776048 -38.99333637 123.64633236 -41 123 C-43.30698825 121.60870022 -45.52669337 120.19864161 -47.75 118.6875 C-52.74136129 115.3652393 -57.70376923 112.49426152 -63.20703125 110.0703125 C-65 109 -65 109 -66 106 C-59.49004423 102.54663746 -52.90777851 99.72535688 -45.98046875 97.2109375 C-39.07026205 94.40338301 -36.33052116 91.04933155 -32.4375 84.875 C-31.38624011 83.25122609 -30.33279394 81.62886586 -29.27734375 80.0078125 C-28.73964355 79.17926758 -28.20194336 78.35072266 -27.64794922 77.49707031 C-24.55050836 72.80364437 -21.27383151 68.23772243 -18.00952148 63.65966797 C-17.08623307 62.36333855 -16.16738798 61.06382948 -15.25366211 59.76074219 C-14.13430293 58.18862565 -12.96294121 56.6538355 -11.78515625 55.125 C-9.3979942 50.94616053 -8.71587506 46.96074137 -7.9375 42.25 C-7.7732251 41.32767578 -7.6089502 40.40535156 -7.43969727 39.45507812 C-6.25540088 32.74425717 -5.1663994 26.01598546 -4.08056641 19.28857422 C-3.01252144 12.78454867 -1.59358809 6.39695644 0 0 Z M1 67 C-0.57397461 68.86572266 -0.57397461 68.86572266 -2.46484375 71.5390625 C-3.17753418 72.54485352 -3.89022461 73.55064453 -4.62451172 74.58691406 C-5.41714673 75.72404827 -6.20894309 76.86176741 -7 78 C-7.20702545 78.2960614 -7.20702545 78.2960614 -8.25469971 79.79431152 C-10.93551063 83.6328925 -13.58175915 87.4933198 -16.20336914 91.37255859 C-17.11953908 92.72237463 -18.04188888 94.0680142 -18.9699707 95.40966797 C-20.3290907 97.37566077 -21.66830522 99.35391712 -23.00390625 101.3359375 C-23.42144669 101.93183685 -23.83898712 102.52773621 -24.2691803 103.14169312 C-26.0333656 105.80085742 -27.01778855 107.49204809 -26.90454102 110.72583008 C-25.50735828 114.23858504 -22.9795964 116.6578528 -20.375 119.3125 C-19.27140053 120.47065434 -18.16853192 121.62950556 -17.06640625 122.7890625 C-16.53418457 123.34368164 -16.00196289 123.89830078 -15.45361328 124.46972656 C-13.68592303 126.33064065 -11.98959823 128.2447621 -10.3125 130.1875 C-10.04953125 130.48849609 -10.04953125 130.48849609 -8.71875 132.01171875 C-7.37416098 133.56716377 -6.04368212 135.13480871 -4.71875 136.70703125 C-3.9246875 137.62871094 -3.130625 138.55039063 -2.3125 139.5 C-1.58675781 140.3559375 -0.86101562 141.211875 -0.11328125 142.09375 C2 144 2 144 6 144 C9.45546113 138.97743459 12.8910363 133.94206699 16.30883789 128.89379883 C17.47435601 127.17821717 18.6452329 125.46626345 19.8215332 123.75805664 C21.51112868 121.30247318 23.18104401 118.83450175 24.84765625 116.36328125 C25.37778824 115.60163162 25.90792023 114.83998199 26.45411682 114.05525208 C30.01449285 108.71832529 30.01449285 108.71832529 29.94287109 105.16845703 C28.56234108 101.99345247 26.63085127 99.31280205 24.5625 96.5625 C23.65206973 95.32181561 22.74192171 94.08092407 21.83203125 92.83984375 C21.59782471 92.52329834 21.59782471 92.52329834 20.41259766 90.92138672 C18.58905127 88.44103586 16.80598224 85.93322808 15.02514648 83.42211914 C13.02762821 80.60693016 11.01291495 77.80419875 9 75 C8.37609375 74.1234375 7.7521875 73.246875 7.109375 72.34375 C6.57828125 71.6115625 6.0471875 70.879375 5.5 70.125 C5.0565625 69.50882812 4.613125 68.89265625 4.15625 68.2578125 C3.7746875 67.84273438 3.393125 67.42765625 3 67 C2.34 67 1.68 67 1 67 Z " fill="#ffffff" transform="translate(537,9)"/>
<path d="" fill="#ffffff" transform="translate(0,0)"/>
<path d="" fill="#ffffff" transform="translate(0,0)"/>
<path d="" fill="#ffffff" transform="translate(0,0)"/>
<path d="" fill="#ffffff" transform="translate(0,0)"/>
<path d="" fill="#ffffff" transform="translate(0,0)"/>
<path d="M0 0 C3.25207092 1.41738489 5.31361067 3.12526412 7.75 5.6875 C10.4302304 8.44231937 13.14581567 11.05924859 16.0625 13.5625 C19.24012657 16.2941439 22.19389345 19.16900964 25.12744141 22.15844727 C26.92387614 23.9251366 28.77323292 25.57672181 30.68359375 27.21875 C35.07851463 31.04042033 39.32945948 35.00063864 43.5625 39 C44.27857422 39.67289063 44.99464844 40.34578125 45.73242188 41.0390625 C49.04923623 44.165741 52.32911259 47.31442392 55.52734375 50.5625 C57.82201825 52.8766209 60.17702343 55.05255869 62.65234375 57.171875 C67.95442918 61.75483875 72.92902296 66.66985296 77.90014648 71.60498047 C79.00571541 72.69902121 80.1157386 73.78857952 81.23022461 74.87353516 C88.2659097 81.72382533 94.13279981 88.38003982 99 97 C99.37954834 97.63647461 99.75909668 98.27294922 100.15014648 98.92871094 C102.5192803 102.90169928 104.75446734 106.95607336 107 111 C107.62648438 112.12792969 108.25296875 113.25585938 108.8984375 114.41796875 C114.5964891 124.83175008 119.65497259 135.55194544 124.71337891 146.28710938 C125.88983395 148.76771061 127.08615426 151.23718827 128.29296875 153.703125 C128.94532772 155.05207598 129.59767266 156.40103373 130.25 157.75 C130.81203125 158.89984375 131.3740625 160.0496875 131.953125 161.234375 C133 164 133 164 132 167 C127.66635621 160.30893423 123.34965622 153.6121489 119.1875 146.8125 C91.63453303 101.86910023 91.63453303 101.86910023 80 90 C78.84504499 88.69551957 77.69896783 87.38311771 76.5625 86.0625 C72.9070023 81.86419058 69.15015543 77.76068087 65.3984375 73.6484375 C63.44762857 71.49428693 61.52606388 69.32281531 59.625 67.125 C56.01952682 62.97530445 52.28166416 58.95235701 48.5456543 54.9206543 C44.75127187 50.82324211 41.00461234 46.68597797 37.27734375 42.52734375 C34.23338611 39.14922953 31.15623667 35.80193996 28.07910156 32.45410156 C25.26023531 29.38414632 22.46504387 26.294845 19.6875 23.1875 C16.95555391 20.13209945 14.18165109 17.1239063 11.36328125 14.1484375 C10.72624268 13.47401611 10.0892041 12.79959473 9.43286133 12.10473633 C8.16211703 10.76208431 6.88732019 9.42325413 5.6081543 8.08862305 C5.02590088 7.472854 4.44364746 6.85708496 3.84375 6.22265625 C3.31974609 5.67359619 2.79574219 5.12453613 2.25585938 4.55883789 C1 3 1 3 0 0 Z " fill="#ffffff" transform="translate(345,135)"/>
<path d="M0 0 C0 3 0 3 -1.94140625 5.19921875 C-2.37388672 5.60978516 -2.37388672 5.60978516 -4.5625 7.6875 C-8.23929839 11.25630851 -11.70715787 14.86668419 -15.0390625 18.75390625 C-17.55573665 21.63655094 -20.14954303 24.44300113 -22.75 27.25 C-23.26602783 27.80719727 -23.78205566 28.36439453 -24.3137207 28.93847656 C-25.36320515 30.07152232 -26.41276582 31.20449747 -27.46240234 32.33740234 C-29.83708053 34.90513153 -32.20052051 37.4830927 -34.5625 40.0625 C-35.01061035 40.55186035 -35.4587207 41.0412207 -35.92041016 41.54541016 C-36.82441138 42.53268749 -37.72838278 43.51999214 -38.63232422 44.50732422 C-40.02579152 46.02814876 -41.42087751 47.54747324 -42.81640625 49.06640625 C-48.58216261 55.34387474 -54.3081752 61.65534942 -60 68 C-61.49971128 69.66692647 -62.99971321 71.33359149 -64.5 73 C-65.2425 73.82628906 -65.985 74.65257812 -66.75 75.50390625 C-68.24482689 77.16222983 -69.7448058 78.81592441 -71.25 80.46484375 C-76.7190903 86.47514611 -81.91484619 92.66239164 -87 99 C-87.28617188 99.34611328 -87.28617188 99.34611328 -88.734375 101.09765625 C-98.1658821 112.75230431 -105.71085196 126.02611244 -113.60205078 138.74853516 C-115.17781071 141.28637275 -116.75890778 143.82085257 -118.33984375 146.35546875 C-119.49758857 148.21602592 -120.65514245 150.07670191 -121.8125 151.9375 C-122.35181152 152.80149414 -122.89112305 153.66548828 -123.44677734 154.55566406 C-126.79596396 159.95221126 -129.97108833 165.41731661 -133 171 C-133.66 171 -134.32 171 -135 171 C-134.20822834 167.03111926 -132.56260139 163.43246731 -130.9375 159.75 C-130.78240967 159.39772339 -130.78240967 159.39772339 -129.99755859 157.61499023 C-124.92985484 146.23099971 -119.16101426 135.20530855 -113.28564453 124.22167969 C-110.92361628 119.79478487 -108.6851789 115.32920928 -106.5 110.8125 C-98.47414622 94.70531419 -87.64419742 82.46086522 -74.9375 69.8125 C-74.09123047 68.96236328 -73.24496094 68.11222656 -72.37304688 67.23632812 C-67.96003427 62.83012047 -63.47384297 58.5901954 -58.74438477 54.52612305 C-56.38166515 52.45903273 -54.1893647 50.24853672 -52 48 C-48.41510388 44.37118478 -44.737064 40.9593714 -40.86328125 37.64453125 C-38.38506948 35.45726258 -36.09635833 33.10720121 -33.78125 30.75 C-31.28103815 28.29365151 -28.62319484 26.03690632 -25.96875 23.75 C-24.06976929 22.06201714 -22.27994012 20.31230266 -20.5 18.5 C-17.50300543 15.45554172 -14.36660794 12.63369116 -11.1328125 9.84375 C-8.73567047 7.77149536 -6.36665177 5.66948778 -4 3.5625 C-3.6184375 3.22283203 -3.6184375 3.22283203 -1.6875 1.50390625 C-1.130625 1.00761719 -0.57375 0.51132813 0 0 Z " fill="#ffffff" transform="translate(729,137)"/>
<path d="M0 0 C0.33 0.165 0.33 0.165 2 1 C2 1.66 2 2.32 2 3 C1.34 3 0.68 3 0 3 C0 2.01 0 1.02 0 0 Z " fill="#ffffff" transform="translate(478,302)"/>
<path d="M0 0 C8.36597373 -0.4308656 16.25381205 1.13632427 22.9921875 6.3046875 C32.082846 14.96378334 40.26374258 26.15317939 42.78125 38.66015625 C42.01393676 42.70543165 39.05802262 44.54462325 35.98046875 46.984375 C35.34181885 47.51023193 34.70316895 48.03608887 34.04516602 48.57788086 C32.13841809 50.14370445 30.21713027 51.69003601 28.29296875 53.234375 C26.43816015 54.75442536 24.58392524 56.27517625 22.73046875 57.796875 C21.86164062 58.498125 20.9928125 59.199375 20.09765625 59.921875 C17.98570753 61.66320319 15.9177565 63.42744063 13.86328125 65.234375 C13.28006104 65.74282959 12.69684082 66.25128418 12.09594727 66.77514648 C10.95907069 67.76913607 9.82898789 68.77096505 8.70678711 69.78149414 C5.54641969 72.53197446 4.65510838 73.234375 0.29296875 73.234375 C-1.96980488 71.84779924 -4.03093854 70.44580939 -6.14453125 68.859375 C-6.45152954 68.63451416 -6.45152954 68.63451416 -8.00512695 67.49658203 C-12.72231768 64.02292089 -17.37189336 60.45878063 -21.99707031 56.86376953 C-26.44331711 53.41060004 -30.98229644 50.10065697 -35.5625 46.828125 C-37.70703125 45.234375 -37.70703125 45.234375 -39.70703125 43.234375 C-37.26284737 27.59159814 -31.72269492 15.08752173 -18.70214844 5.34277344 C-12.53002349 1.07742599 -7.21840946 0.62497052 0 0 Z " fill="#ffffff" transform="translate(537.70703125,361.765625)"/>
<path d="M0 0 C0.81114258 0.0319043 1.62228516 0.06380859 2.45800781 0.09667969 C14.6580971 0.63675174 24.72028235 2.67497918 35.71582031 8.00341797 C38 9 38 9 40.99511719 9.98486328 C50.02635372 13.00729574 55.69078325 17.42607722 62.25 24.25 C62.7262381 24.73498962 63.2024762 25.21997925 63.69314575 25.71966553 C71.2832875 33.47324319 76.85524474 41.24812844 81.15722656 51.19238281 C82.44793665 53.96075405 84.1446387 56.44630365 85.8125 59 C89.69375425 65.57930859 91.17785087 72.35155349 92.57373047 79.78222656 C92.98779108 81.93648005 93.45906647 84.0710847 93.94140625 86.2109375 C96.66976771 99.15989825 95.91128918 111.86530651 95 125 C87.86784368 129.32251898 80.64747644 133.25859812 73.1652832 136.9296875 C67.62125419 139.65758595 62.17952419 142.55132779 56.78393555 145.56225586 C53.96250497 147.10492812 52.27137262 148 49 148 C49.66 148.99 50.32 149.98 51 151 C51.79277344 150.72027344 52.58554687 150.44054687 53.40234375 150.15234375 C62.59632745 146.99286427 71.88087361 144.31248038 81.25170898 141.72827148 C88.36940324 139.75769865 95.44379095 137.67998691 102.5 135.5 C110.63140221 132.98783656 118.79571754 130.6375719 127 128.375 C133.55932764 126.56443499 140.06602703 124.71711231 146.5 122.5 C153.83736119 119.97496397 161.2832825 117.92726623 168.76342773 115.86938477 C176.59406416 113.70383394 184.37198275 111.39288437 192.14266968 109.02185059 C214.02906808 102.36015263 236.10446933 97.27523029 258.47143555 92.54272461 C273.62669246 89.33037917 288.72412724 85.89355966 303.81060791 82.37374878 C305.98651598 81.86628809 308.16280346 81.36047911 310.33911133 80.85473633 C312.40328688 80.37279711 314.46649626 79.88652063 316.52612305 79.38549805 C323.10821138 77.82193388 329.80094913 76.94441295 336.49365234 75.9982605 C348.52245376 74.29436993 360.5210664 72.46451068 372.5 70.4375 C374.97656124 70.0221279 377.45312372 69.6067632 379.9296875 69.19140625 C383.36853887 68.61360087 386.80679375 68.03330641 390.24316406 67.44091797 C405.78295872 64.77522691 421.2835158 63.13972334 436.99462891 61.95068359 C437.74618256 61.89348648 438.49773621 61.83628937 439.27206421 61.77735901 C441.32335555 61.6230436 443.3750461 61.47406123 445.42675781 61.32543945 C448.66212674 61.03077241 451.80150952 60.55604791 455 60 C457.331773 59.84865896 459.66555392 59.72713202 462 59.625 C470.36345368 59.20530114 478.67216065 58.36370413 487 57.5 C496.58180126 56.50624388 506.12571651 55.6319999 515.75 55.2109375 C519 55 519 55 522.1015625 54.48046875 C526.41003673 53.76626076 530.64760472 53.94118385 535 54 C534.31230905 62.16588618 533.11785046 70.2247153 531.8125 78.3125 C531.75856079 78.64728867 531.75856079 78.64728867 531.4855957 80.34152222 C528.81547955 96.81752937 525.59061958 113.19984696 521.71875 129.4375 C518.56341241 142.68514849 516.23888016 155.98872074 514.14257812 169.43969727 C512.61788371 179.10376616 510.94921144 188.44641546 506.625 197.3125 C504.73614036 201.32208529 503.06121031 205.35150092 501.5 209.5 C499.61124848 214.50519154 497.5090195 219.34408256 495.2421875 224.1875 C493.89025327 227.24848315 492.76067189 230.35277856 491.625 233.5 C489.16199108 239.96159748 485.94243855 245.34279207 482 251 C481.34644531 252.02480469 480.69289063 253.04960938 480.01953125 254.10546875 C467.99481222 272.30867828 450.05829654 291.15336345 430.36425781 300.78320312 C425.19322565 303.44454392 420.24784726 306.53008091 415.25 309.5 C413.21624335 310.70249772 411.17994252 311.90070729 409.140625 313.09375 C408.26954102 313.60615234 407.39845703 314.11855469 406.50097656 314.64648438 C402.55666901 316.78112329 398.70992358 318.17609704 394.33203125 319.11328125 C393.8899231 319.21008179 393.8899231 319.21008179 391.65258789 319.69995117 C390.71535889 319.90209229 389.77812988 320.1042334 388.8125 320.3125 C381.65243202 321.88647281 374.5972109 323.62667909 367.5625 325.6875 C351.71021487 330.20040903 336.37269284 330.26443658 320 330 C323.93547068 335.1666474 327.91802311 340.15033681 332.375 344.875 C336.75820445 349.57231523 340.87534446 354.42230558 344.890625 359.44140625 C346.81828372 361.77958488 348.84066195 363.94009475 350.9375 366.125 C356.21038808 371.99304574 359.83026064 378.88643771 363.69140625 385.71972656 C364.99974269 387.99955163 366.35014041 390.24809914 367.71875 392.4921875 C374.58620373 403.77880709 378.75112157 414.62545546 382.16333008 427.36889648 C383.14999107 431.04674772 384.22243073 434.60864765 385.55957031 438.17504883 C387.19829092 443.07240365 387.38881558 447.50039941 387.29296875 452.62890625 C387.28872391 453.50401352 387.28447906 454.37912079 387.28010559 455.28074646 C387.26347981 458.04166072 387.22585966 460.80181105 387.1875 463.5625 C387.17243228 465.44855707 387.15874756 467.33462573 387.14648438 469.22070312 C387.11362937 473.81409083 387.06196135 478.40691647 387 483 C369.94034344 492.43353032 343.8302657 488.28826517 325.50537109 485.38037109 C320.56714255 484.63063809 315.60286988 484.09123521 310.640625 483.52734375 C301.42791224 482.19288428 292.95800331 479.40212219 284.1875 476.3125 C282.24345199 475.63035254 280.29914085 474.94895916 278.35479736 474.26765442 C277.0618687 473.814403 275.76918307 473.36045768 274.47674561 472.9058075 C270.72678195 471.59011822 266.96532905 470.32268516 263.18359375 469.1015625 C253.81099566 466.04374797 245.60570421 462.45884451 237.3046875 457.12109375 C234.43794202 455.28109045 231.56328453 453.60724513 228.5625 452 C225.3943399 450.30243362 222.24406604 448.58079414 219.1171875 446.80859375 C218.42681396 446.41736328 217.73644043 446.02613281 217.02514648 445.62304688 C215.68499717 444.86199378 214.34587431 444.09912873 213.00805664 443.33398438 C209.30364423 441.23307287 205.55793728 439.25628898 201.74438477 437.35961914 C201.29877449 437.13772163 201.29877449 437.13772163 199.04371643 436.01478577 C198.36929001 435.67990646 197.69486359 435.34502716 197 435 C197.00444122 435.93135269 197.00888245 436.86270538 197.01345825 437.82228088 C197.05425846 446.66199511 197.08410511 455.50168987 197.10362434 464.34147739 C197.11399717 468.88451163 197.12803533 473.42746898 197.15087891 477.97045898 C197.17284202 482.36658913 197.1846173 486.76264599 197.18975449 491.15882683 C197.19340863 492.82388396 197.20054212 494.48893774 197.21146011 496.15396309 C197.2949032 509.4246639 196.80780084 522.45080458 192.6875 535.1875 C190.7376502 541.41425248 189.03939209 547.65928659 187.5 554 C179.6240488 586.21668735 179.6240488 586.21668735 175 590 C169.91403365 588.99879181 166.16088449 586.06355466 161.9375 583.1875 C161.08712158 582.60871094 160.23674316 582.02992188 159.3605957 581.43359375 C153.15919762 577.08712295 148.15219452 572.46578118 143.32421875 566.65625 C140.7489703 563.71310892 138.05425405 561.43282574 135 559 C135.00761353 559.32234619 135.00761353 559.32234619 135.04614258 560.95361328 C135.14298893 568.35214751 134.53115672 575.53064853 133.6875 582.875 C132.7377387 591.35090006 131.90796581 599.80001752 131.37890625 608.3125 C130.30887958 625.11731356 128.63872785 640.23853743 122.93945312 656.21289062 C121.19766807 661.380307 119.87575494 666.66325574 118.5 671.9375 C116.01134738 681.33737731 113.39307802 690.68762316 110.625 700.0090332 C109.09486757 705.17792643 107.62544266 710.3540005 106.25 715.56640625 C103.52539399 725.83233247 100.87646331 735.40497651 95.75 744.75390625 C93.77185498 748.42318865 92.1294278 752.16706906 90.5 756 C87.28335562 763.4850575 83.78693186 770.78481045 80 778 C79.67717041 778.62148926 79.35434082 779.24297852 79.02172852 779.88330078 C74.90689436 787.56372624 70.04726281 794.77855087 65.1875 802 C64.72490784 802.68808746 64.26231567 803.37617493 63.78570557 804.08511353 C56.58447984 814.73817286 48.92963197 824.32723156 39.70019531 833.31982422 C37.11647937 835.87311732 34.68399983 838.5549305 32.25 841.25 C31.3940625 842.18585937 30.538125 843.12171875 29.65625 844.0859375 C28.26394441 845.61337864 26.87206037 847.14121172 25.484375 848.67285156 C14.07434883 861.26200791 14.07434883 861.26200791 8 866 C7.01 866.804375 6.02 867.60875 5 868.4375 C1.08588607 870.47610101 -0.7385905 869.97817689 -5 869 C-14.83453951 863.29674657 -22.93463207 854.69611864 -30.328125 846.18359375 C-33.31821632 842.74673956 -36.40101266 839.41778106 -39.54150391 836.1184082 C-49.43956804 825.7118033 -57.62260268 815.29304374 -65.08032227 803.00195312 C-67.87842316 798.39169872 -70.73039178 793.88707727 -73.86499023 789.49951172 C-80.99495717 779.4550527 -85.64969921 768.20101834 -90.63867188 756.98974609 C-92.63848981 752.59774997 -94.8146795 748.30178654 -97 744 C-103.60960733 730.85145114 -107.51959759 717.51820313 -111.14111328 703.28417969 C-112.48222548 698.1560838 -113.98815979 693.07988416 -115.5 688 C-118.30668166 678.51849902 -120.92652319 668.99636385 -123.42773438 659.4296875 C-124.78110771 654.3073845 -126.2357536 649.27324056 -127.93603516 644.25372314 C-130.88429476 635.41188405 -132.02374391 627.0188063 -132.625 617.75 C-132.79116426 615.52307061 -132.96418101 613.29673775 -133.13754272 611.07035828 C-133.2539063 609.57126129 -133.36819455 608.07200172 -133.4803772 606.57258606 C-134.11671808 598.14999565 -135.05292218 589.76515806 -135.99853516 581.37207031 C-136.82724376 573.92400873 -137.46872338 566.47516867 -138 559 C-143.15452699 563.34913214 -148.10691877 567.86000918 -153 572.5 C-156.87508499 576.17464956 -160.75832939 579.83887254 -164.75390625 583.3828125 C-165.2857251 583.85605957 -165.81754395 584.32930664 -166.36547852 584.81689453 C-169.066482 586.771945 -171.75839853 587.33844868 -175 588 C-180.12967297 582.95740956 -182.14034942 578.60769839 -183.5625 571.625 C-183.97096685 569.82223625 -184.38247036 568.02015809 -184.796875 566.21875 C-184.99732422 565.32929687 -185.19777344 564.43984375 -185.40429688 563.5234375 C-186.06931088 560.70639458 -186.84245107 557.9426992 -187.68955994 555.17572021 C-188.30002386 553.16607147 -188.88764982 551.15090893 -189.47290039 549.13378906 C-190.25761226 546.44492328 -191.07370553 543.77651604 -191.95108032 541.11621094 C-199.20973484 519.08143374 -200.16755353 498.37475914 -200.01287842 475.31866455 C-199.99104241 470.75142065 -200.01539365 466.18440722 -200.03515625 461.6171875 C-200.06709391 452.74441828 -200.05033543 443.8726835 -200 435 C-202.24325458 436.28013581 -204.48630807 437.56062178 -206.72924805 438.84130859 C-207.36068474 439.20159653 -207.99212143 439.56188446 -208.64269257 439.93309021 C-213.05826974 442.4548116 -217.45549844 445.00306548 -221.8125 447.625 C-222.43721191 447.99979492 -223.06192383 448.37458984 -223.70556641 448.76074219 C-227.15425251 450.84300148 -230.54006078 452.98804123 -233.875 455.25 C-244.95882811 462.74242012 -256.88611103 467.40212526 -269.5625 471.53515625 C-275.16973264 473.37041825 -280.73983509 475.31282527 -286.3125 477.25 C-287.33384033 477.60360596 -288.35518066 477.95721191 -289.4074707 478.3215332 C-290.36226318 478.6537085 -291.31705566 478.98588379 -292.30078125 479.328125 C-293.15841064 479.6262207 -294.01604004 479.92431641 -294.8996582 480.23144531 C-297 481 -297 481 -299 482 C-300.38992497 482.14585352 -301.78590153 482.23617848 -303.18212891 482.29711914 C-304.05526733 482.33707504 -304.92840576 482.37703094 -305.82800293 482.41819763 C-306.30626526 482.4374958 -306.30626526 482.4374958 -308.7265625 482.53515625 C-309.72643188 482.57822403 -310.72630127 482.62129181 -311.75646973 482.66566467 C-315.04575685 482.80418378 -318.33530196 482.93413109 -321.625 483.0625 C-322.73937439 483.10735535 -323.85374878 483.15221069 -325.00189209 483.19842529 C-346.34125897 484.04617718 -367.64734869 484.2354406 -389 484 C-390.19063776 467.68775317 -390.81356615 453.04095776 -385.73046875 437.30419922 C-384.72441032 434.13067668 -383.86976517 430.92195117 -383.00439453 427.70776367 C-382.23215288 424.84555693 -381.43794059 421.99102446 -380.60961914 419.14453125 C-380.18743607 417.65936663 -379.79252987 416.16627906 -379.41967773 414.66796875 C-377.51753326 407.47939121 -374.15818126 401.57637367 -370.3125 395.25 C-369.0394947 393.1229162 -367.76735356 390.99531496 -366.49609375 388.8671875 C-365.88749512 387.85366211 -365.27889648 386.84013672 -364.65185547 385.79589844 C-363.29092833 383.49241962 -361.9830901 381.1795404 -360.72265625 378.8203125 C-355.88389977 369.797515 -349.85851675 362.51870731 -343 355 C-342.19046875 354.10410156 -341.3809375 353.20820312 -340.546875 352.28515625 C-339.08888868 350.67168537 -337.62932469 349.05963832 -336.16796875 347.44921875 C-331.20276129 341.83987626 -326.45460365 336.02352066 -322 330 C-322.64066406 330.01160156 -323.28132812 330.02320313 -323.94140625 330.03515625 C-324.37388672 330.03966797 -324.37388672 330.03966797 -326.5625 330.0625 C-327.40941406 330.07410156 -328.25632812 330.08570313 -329.12890625 330.09765625 C-332 330 -332 330 -335.2578125 329.5234375 C-339.61765271 328.91360599 -343.91802786 328.73318409 -348.3125 328.5625 C-351.87586496 328.38995743 -355.43799683 328.19855312 -359 328 C-359.78439453 327.9582666 -360.56878906 327.9165332 -361.37695312 327.87353516 C-373.09577823 327.17333788 -382.98035906 324.25895569 -393.828125 319.85205078 C-396.92386416 318.63755779 -400.08647823 317.64744454 -403.25 316.625 C-410.46017033 314.05710871 -416.633544 310.32044747 -423.04833984 306.21923828 C-425.03346333 304.97909483 -427.04836742 303.8109188 -429.08203125 302.65234375 C-438.77249861 297.04394982 -445.92099787 290.64496321 -453 282 C-453.7528125 281.0821875 -454.505625 280.164375 -455.28125 279.21875 C-456.72269904 277.44305191 -458.15888064 275.66306533 -459.58984375 273.87890625 C-462.44403499 270.46960488 -465.45287846 267.23630759 -468.5 264 C-473.95307199 258.20522115 -479.05801391 252.24090646 -484 246 C-484.61810547 245.27369385 -485.23621094 244.5473877 -485.87304688 243.79907227 C-488.27390362 240.63954258 -490.12338668 237.32762562 -491.93359375 233.8125 C-492.29213943 233.12160278 -492.65068512 232.43070557 -493.02009583 231.71887207 C-494.17049856 229.48478424 -495.30663599 227.24403772 -496.4375 225 C-496.63055725 224.61767212 -496.63055725 224.61767212 -497.60754395 222.68286133 C-503.2521933 211.41482084 -507.4302805 200.77409994 -509.55957031 188.29541016 C-510.44298087 183.69129371 -511.85958743 179.21778948 -513.21582031 174.734375 C-517.0600772 161.50541603 -518.70766572 147.68654292 -520.5 134.0625 C-520.71913829 132.42599018 -520.93854297 130.78951602 -521.15820312 129.15307617 C-522.3731984 120.04956528 -523.47865169 110.93991715 -524.5 101.8125 C-525.60171824 91.98768867 -527.33777005 82.34632074 -529.375 72.6730957 C-530.55023794 66.98211414 -531.25817418 61.81240784 -531 56 C-529.50011039 55.9723381 -528.00006131 55.9533139 -526.5 55.9375 C-525.6646875 55.92589844 -524.829375 55.91429687 -523.96875 55.90234375 C-520.99075166 56.00030422 -518.09921745 56.37108276 -515.14642334 56.74952698 C-511.90320742 57.12798824 -508.65790894 57.31550939 -505.3984375 57.5 C-504.69245422 57.54015228 -503.98647095 57.58030457 -503.25909424 57.62167358 C-500.96455277 57.75078967 -498.66979102 57.87540539 -496.375 58 C-495.58099792 58.04457336 -494.78699585 58.08914673 -493.96893311 58.1350708 C-484.40403806 58.67170402 -474.85431672 59.08361163 -465.27636719 59.29248047 C-445.62046504 59.7366965 -426.46611018 62.15197875 -407.1633606 65.86434937 C-399.47834129 67.32261408 -391.7441366 68.40905313 -384 69.5 C-375.62935748 70.67920522 -367.28899153 71.89702696 -358.98828125 73.50390625 C-351.47188989 74.95876064 -343.92841796 76.07576592 -336.34738159 77.13430786 C-323.44864216 78.944961 -310.68464348 81.01326973 -298 84 C-296.49104574 84.34445308 -294.98192779 84.68818977 -293.47265625 85.03125 C-287.55508709 86.38856118 -281.65565932 87.78395094 -275.8125 89.4375 C-270.60217398 90.89607929 -265.34143785 92.0715487 -260.0625 93.25 C-251.35825343 95.19352834 -242.70703393 97.30675216 -234.0625 99.5 C-225.32051334 101.71427086 -216.57011662 103.80765771 -207.75 105.6875 C-187.8844853 109.9259051 -168.27495471 115.08986264 -149.046875 121.66015625 C-144.02616782 123.35035864 -138.94796062 124.85068095 -133.875 126.375 C-125.36395939 128.93572647 -116.92559042 131.66262197 -108.50683594 134.51074219 C-102.38767801 136.56906783 -96.23412061 138.44426224 -90.02978516 140.22705078 C-85.47932507 141.54186862 -80.98712781 142.97909984 -76.5 144.5 C-66.10582461 148.02024957 -55.55111761 150.99128287 -45 154 C-56.2325181 142.35603435 -69.72205864 135.91426007 -84.24414062 129.28271484 C-88.54295718 127.28183053 -92.77386755 125.14933957 -97 123 C-97.56910446 110.22676649 -95.95926575 97.80541497 -94.34936523 85.15258789 C-94.00136942 82.01235731 -93.81215457 78.88815886 -93.6328125 75.734375 C-93.20170317 70.31997924 -91.82038098 66.21719215 -89.3125 61.4375 C-89.13134644 61.07587769 -89.13134644 61.07587769 -88.21459961 59.24584961 C-87.49028998 57.80987017 -86.75694219 56.378406 -86.01367188 54.95214844 C-85.13268246 53.2555224 -84.28943798 51.5394003 -83.453125 49.8203125 C-80.44737411 43.85946945 -76.79967824 39.1684008 -72.20703125 34.33203125 C-70.27226828 32.28768879 -68.51670387 30.1875564 -66.75 28 C-62.7714577 23.41864826 -57.97132016 19.90103767 -53.109375 16.32421875 C-50 14 -50 14 -48.015625 12.20703125 C-41.85671614 6.71204146 -33.80098729 5.48182726 -25.99804688 3.53613281 C-23.69334285 2.91771516 -21.52023272 2.0891313 -19.3125 1.1875 C-13.07002482 -0.92940873 -6.48904893 -0.32431144 0 0 Z M-40.46557617 47.60449219 C-42 49 -42 49 -43.74731445 50.37207031 C-48.59432294 54.20138418 -51.34173492 58.30468865 -54.1875 63.75 C-54.61748291 64.55711426 -55.04746582 65.36422852 -55.49047852 66.19580078 C-56.67989964 68.45440287 -57.84333339 70.72450166 -59 73 C-59.46921875 73.88945312 -59.9384375 74.77890625 -60.421875 75.6953125 C-63.72531746 82.78500825 -64.50223834 90.80893045 -65.58203125 98.48828125 C-65.63476196 98.86231079 -65.63476196 98.86231079 -65.90161133 100.75512695 C-66.02024128 103.46183278 -65.89511441 105.42762475 -65 108 C-62.85449219 109.58984375 -62.85449219 109.58984375 -60.046875 110.9375 C-59.54091797 111.18886719 -59.54091797 111.18886719 -56.98046875 112.4609375 C-56.44744141 112.71488281 -56.44744141 112.71488281 -53.75 114 C-41.13354603 120.09924278 -41.13354603 120.09924278 -37 125 C-36.22140625 125.82757813 -35.4428125 126.65515625 -34.640625 127.5078125 C-29.70156726 132.91495088 -24.94890887 138.42039855 -20.34765625 144.1171875 C-17.77184802 147.28016 -15.14296347 150.39319003 -12.5 153.5 C-7.59245898 159.27403412 -2.77555747 165.11604153 2 171 C5.29294403 169.90235199 5.79036655 169.31692467 7.78515625 166.640625 C8.31069092 165.94356445 8.83622559 165.24650391 9.37768555 164.52832031 C9.93367432 163.77647461 10.48966309 163.02462891 11.0625 162.25 C12.23677784 160.68734869 13.4112589 159.12485007 14.5859375 157.5625 C15.16569336 156.78648437 15.74544922 156.01046875 16.34277344 155.2109375 C18.59741774 152.20297362 20.88864382 149.22422635 23.1875 146.25 C25.69161207 143.0036267 28.18978017 139.7535138 30.6640625 136.484375 C31.1072583 135.90139648 31.5504541 135.31841797 32.00708008 134.71777344 C33.23242428 133.10536988 34.45422779 131.49027731 35.67578125 129.875 C39.84553016 124.71712571 43.78796304 121.30045351 49.625 118.125 C50.86062866 117.4423685 52.09498749 116.7574339 53.328125 116.0703125 C53.63459961 115.89967285 53.63459961 115.89967285 55.18554688 115.03613281 C59.56513738 112.53519335 63.7786428 109.7568047 68 107 C67.38683746 102.65736647 66.70130506 98.3292101 66 94 C65.92007813 93.43603516 65.92007813 93.43603516 65.515625 90.58203125 C63.27321279 77.41543523 56.23141509 66.15516851 48.10546875 55.71875 C46 53 46 53 43.86328125 49.71875 C36.79131165 39.40995454 27.20059932 35.4257593 15.24560547 32.60205078 C-6.76545453 28.51906041 -24.25219041 32.27429435 -40.46557617 47.60449219 Z M485.875 85.1875 C476.88436839 86.76269604 467.85498396 88.01724033 458.8125 89.25 C442.63925467 91.4609199 426.49390645 93.83769262 410.35327148 96.2746582 C400.04755786 97.82644269 389.73807198 99.32562708 379.41015625 100.72265625 C355.35426432 103.99204717 331.73116081 107.97129794 308.09387207 113.51177979 C302.63725261 114.78407906 297.16989516 116.01008388 291.70471191 117.2449646 C289.77762199 117.68124654 287.85120762 118.12050901 285.92480469 118.55981445 C277.84733648 120.39305498 269.75243769 122.09119425 261.625 123.6875 C248.23296756 126.32474894 235.17164571 129.11380758 222.25 133.58984375 C217.03177244 135.36176131 211.733207 136.85431734 206.4375 138.375 C198.45758636 140.66993861 190.52580535 143.07095058 182.625 145.625 C175.23824563 148.01223899 167.82806329 150.20215548 160.33447266 152.22705078 C155.66126416 153.50213462 151.08456991 154.93453711 146.5 156.5 C141.30647936 158.27313033 136.10901835 159.82991899 130.8125 161.25 C121.55398072 163.74078749 112.46574919 166.71868443 103.35180664 169.68896484 C95.84100307 172.12387849 88.31926512 174.41963544 80.6796875 176.41601562 C75.97833268 177.65743763 71.52592495 179.23991807 67 181 C67 181.33 67 181.66 67 182 C73.35919805 182.38155188 78.90297042 181.24779212 85.09765625 179.84375 C88.98766629 179.00266675 92.88432667 178.31602615 96.8125 177.6875 C105.79102564 176.23635375 114.73934318 174.62581039 123.6875 173 C124.38211334 172.87434662 125.07672668 172.74869324 125.79238892 172.61923218 C138.33952688 170.34811708 138.33952688 170.34811708 144.1315918 169.16210938 C144.80128494 169.02514648 145.47097809 168.88818359 146.16096497 168.74707031 C147.99602784 168.36872985 149.82984906 167.98438111 151.66357422 167.59960938 C156.08328384 166.80531647 160.45997535 166.55454937 164.9375 166.3046875 C169.96488202 165.9764829 174.94426476 165.28053647 179.9375 164.625 C191.18855453 163.15628421 202.45794491 162.03556524 213.75561523 161.00244141 C214.38568481 160.94403076 214.38568481 160.94403076 217.57421875 160.6484375 C218.13411499 160.59776123 218.13411499 160.59776123 220.9675293 160.34130859 C223.69557107 160.03426388 226.31512353 159.55963833 229 159 C230.93566044 158.84916932 232.8736757 158.72742845 234.8125 158.625 C242.27550462 158.12901631 249.65484098 157.20518165 257.07048035 156.2427063 C263.46901584 155.4205902 269.86949836 154.67932217 276.28671265 154.01965332 C293.59355607 152.24049736 310.8383226 150.04125446 328.08959961 147.79681396 C331.14795317 147.39961352 334.20667359 147.00528159 337.26540756 146.61102295 C353.85260677 144.47270049 370.43361465 142.29494948 387 140 C387 140.66 387 141.32 387 142 C386.16597656 141.95488281 385.33195312 141.90976562 384.47265625 141.86328125 C380.53177756 142.01843395 377.1551681 142.98825223 373.4375 144.1875 C366.84259925 146.22655942 360.22674491 147.95273192 353.5 149.5 C347.31355884 150.93297668 341.19841193 152.45718376 335.125 154.3125 C327.55311821 156.61361933 319.91678872 158.65571148 312.25897217 160.64804077 C310.89930723 161.00212895 309.54011721 161.35804687 308.18145752 161.7159729 C295.28344719 165.10857562 282.69762398 167.15721053 269.41860962 168.26177979 C257.31184322 169.27189036 245.25627555 170.50299332 233.20068359 172.01538086 C228.1134664 172.64718989 223.0571004 173.19306952 217.9375 173.5 C211.97765818 173.85989383 206.10386367 174.59788763 200.1875 175.375 C188.46991013 176.91132738 176.72844303 177.99275875 164.95581055 178.99755859 C164.26591034 179.05731873 163.57601013 179.11707886 162.86520386 179.1786499 C160.98238115 179.34127545 159.09923222 179.50011151 157.21606445 179.65869141 C154 180 154 180 151.51367188 180.5 C148.32240914 181.13478109 145.16102875 181.38452848 141.91796875 181.6484375 C140.50812177 181.76624442 139.09829169 181.88425391 137.68847656 182.00244141 C136.95375122 182.06312805 136.21902588 182.1238147 135.46203613 182.18634033 C123.21709322 183.2019878 111.02996364 184.39916776 98.84643555 186.00854492 C91.57279039 186.96113007 84.32928466 187.62579356 77 188 C77 188.66 77 189.32 77 190 C88.16163837 191.45157671 99.24609664 192.29969249 110.49804688 192.65795898 C115.84413035 192.83433665 121.11052006 193.18762513 126.42773438 193.76147461 C131.27411694 194.21087816 136.13711038 194.33337815 141 194.5 C143.04177015 194.56995913 145.08344221 194.64284593 147.125 194.71875 C148.01445313 194.74904297 148.90390625 194.77933594 149.8203125 194.81054688 C152.38892135 194.96359052 154.89576933 195.21497472 157.44946289 195.50927734 C164.18584095 196.19991881 170.91900837 196.14434206 177.68359375 196.1328125 C179.10677609 196.13348919 180.52995831 196.13446221 181.95314026 196.13571167 C184.93434755 196.13717965 187.91552475 196.13506863 190.89672852 196.13037109 C194.63011203 196.1247615 198.36342285 196.12799622 202.09680367 196.13381577 C216.87583343 196.15329933 231.62035243 196.01901121 246.38859558 195.38565063 C256.31536805 194.97915218 266.23831658 194.83035908 276.171875 194.71875 C277.00803911 194.70919155 277.84420322 194.6996331 278.70570564 194.689785 C285.59907331 194.61195466 292.49251708 194.54209376 299.38598633 194.47393799 C304.57670027 194.42246281 309.76735611 194.36758349 314.95798492 194.30812073 C317.33889383 194.28215498 319.7198112 194.2610122 322.10076904 194.2401123 C336.58257527 194.09146126 349.88931189 193.72076236 363.625 188.5625 C365.49653265 187.88622051 367.36808042 187.20998027 369.24040222 186.53588867 C370.52814091 186.0708858 371.81493624 185.60326231 373.1007843 185.13305664 C377.7485403 183.43468754 382.4207603 181.82399139 387.11328125 180.25390625 C388.43735623 179.80856884 389.76141247 179.36317568 391.08544922 178.91772461 C393.59944722 178.07250046 396.11554755 177.23472992 398.63330078 176.40063477 C407.45728806 173.40342084 413.74527208 169.39862358 420.6875 163.3125 C424.91234074 159.64800656 429.15430464 156.02162276 433.5 152.5 C452.40104004 137.08366498 452.40104004 137.08366498 459.53515625 128.8203125 C462.72596237 125.16934258 466.04840016 121.65199742 469.375 118.125 C474.74103858 112.42004671 480.07333771 106.68829093 485.34765625 100.8984375 C487.26052739 98.80808348 489.1834362 96.73113578 491.12109375 94.6640625 C491.63381836 94.11395508 492.14654297 93.56384766 492.67480469 92.99707031 C493.66241222 91.9380541 494.65379382 90.8825414 495.64941406 89.83105469 C499 86.22481142 499 86.22481142 499 84 C494.45512501 83.86796235 490.34336668 84.37055619 485.875 85.1875 Z M-494 85 C-487.34765394 92.91089802 -480.47206492 100.72580208 -473 107.875 C-464.78613769 115.97128146 -458.14117605 125.76278307 -451.26171875 134.9765625 C-448.77052654 138.30675727 -446.26938843 141.6285998 -443.75 144.9375 C-442.96109375 145.97777344 -442.1721875 147.01804687 -441.359375 148.08984375 C-437.16057477 153.26882748 -432.57565799 157.24566899 -427.13671875 161.01953125 C-426.47644684 161.4795755 -425.81617493 161.93961975 -425.13589478 162.41360474 C-410.58484629 172.46527532 -397.1182237 180.82304658 -379.79980469 185.2421875 C-376.8713926 186.03480968 -374.02988755 186.9742695 -371.1640625 187.96875 C-370.20201904 188.29883057 -369.23997559 188.62891113 -368.2487793 188.96899414 C-366.46870539 189.58224236 -364.69115572 190.20291024 -362.91723633 190.83374023 C-350.6640223 194.87237452 -337.05539767 194.15248467 -324.26900673 194.26036072 C-321.71868617 194.28194479 -319.16846625 194.30891371 -316.61820984 194.33703613 C-311.18301559 194.39601339 -305.74776779 194.44832199 -300.3125 194.5 C-293.18354274 194.56841517 -286.05463596 194.64033626 -278.92578125 194.71875 C-278.05377956 194.72817753 -277.18177788 194.73760506 -276.2833519 194.74731827 C-265.72132077 194.86530844 -255.17569041 195.08774574 -244.62109375 195.5234375 C-229.83890995 196.12849899 -215.06645317 196.15306138 -200.27441406 196.13037109 C-196.45112153 196.12457069 -192.62789765 196.12803985 -188.80460739 196.13394356 C-185.8087716 196.13756339 -182.81295207 196.1364058 -179.81711578 196.13381577 C-178.40585573 196.13315576 -176.99459413 196.13394192 -175.58333588 196.13629532 C-168.62267869 196.14539732 -161.88631561 196.02350227 -155 195 C-153.16953687 194.87945011 -151.3372092 194.78299848 -149.50390625 194.71875 C-149.01825195 194.70005859 -149.01825195 194.70005859 -146.56054688 194.60546875 C-145.57119141 194.57066406 -144.58183594 194.53585937 -143.5625 194.5 C-137.41776366 194.28298511 -131.35432215 193.97035067 -125.24975586 193.23193359 C-121.01212528 192.79506446 -116.75568608 192.71040873 -112.5 192.5625 C-102.92150268 192.18596372 -93.49447883 191.29699114 -84 190 C-84 189.34 -84 188.68 -84 188 C-84.81339844 187.92483154 -85.62679688 187.84966309 -86.46484375 187.7722168 C-113.81811905 185.22803912 -113.81811905 185.22803912 -127 183.5 C-136.17106913 182.29784105 -145.35318219 181.35709599 -154.5625 180.5 C-164.48244881 179.57654295 -174.35000471 178.4861177 -184.21899414 177.125 C-192.29341059 176.03621906 -200.38839205 175.25369934 -208.5 174.5 C-218.31452492 173.58617114 -228.08509211 172.54214247 -237.84960938 171.1953125 C-243.85606945 170.37873699 -249.86767412 169.67210268 -255.89453125 169.02734375 C-256.68296921 168.94247208 -257.47140717 168.8576004 -258.28373718 168.77015686 C-262.20546739 168.34901596 -266.12779117 167.93558986 -270.05151367 167.53344727 C-282.46096413 166.22974029 -294.58306414 164.21287084 -306.5625 160.625 C-313.32800295 158.67078536 -320.12385936 157.01729567 -327 155.5 C-333.55971986 154.04941726 -340.04669983 152.49322052 -346.5 150.625 C-359.51794328 146.86149694 -372.79293322 144.01371939 -386 141 C-380.09820606 140.8788488 -374.72321737 141.21103639 -368.9375 142.3125 C-361.95684515 143.55770978 -354.9784974 144.53982793 -347.9375 145.375 C-336.5304339 146.74100365 -325.18500063 148.43731328 -313.83374023 150.19873047 C-300.31819757 152.2930932 -286.82997858 154.10641634 -273.19778442 155.26123047 C-262.62760649 156.16011811 -252.08766792 157.16323452 -241.5625 158.5 C-231.01918509 159.8345418 -220.45778965 160.78959068 -209.87051392 161.68548584 C-199.05613031 162.6030589 -188.28260429 163.7126272 -177.50683594 165.01782227 C-172.27285788 165.64608258 -167.07997412 166.16817611 -161.8125 166.4375 C-146.52404564 167.39537613 -131.32744983 171.09216439 -116.34960938 174.14135742 C-108.37327543 175.75558597 -100.37574039 177.18513612 -92.35205078 178.54199219 C-84.99375322 179.79637863 -77.68031788 181.22650161 -70.37963867 182.78149414 C-66.52048381 183.58509638 -62.96867053 184.2231381 -59 184 C-59 183.34 -59 182.68 -59 182 C-59.69222656 181.84144531 -60.38445312 181.68289063 -61.09765625 181.51953125 C-67.94533083 179.88655484 -74.55539626 177.85855143 -81.21484375 175.5859375 C-87.60500737 173.43743478 -94.05767333 171.48503347 -100.5 169.5 C-109.10723254 166.84592889 -117.6821409 164.13838307 -126.2109375 161.2421875 C-132.28393632 159.25124562 -138.40800991 157.42929209 -144.52832031 155.58984375 C-149.93755711 153.95727014 -155.29140449 152.23882788 -160.625 150.375 C-168.98307812 147.54597025 -177.53179984 145.65207237 -186.12304688 143.67236328 C-198.93764281 140.67750608 -211.6867299 137.42311794 -224.34448242 133.82421875 C-230.91589866 131.97649374 -237.54593515 130.42121718 -244.19311523 128.87255859 C-249.75415134 127.56593661 -255.25763988 126.13138886 -260.75 124.5625 C-277.85992963 119.72317329 -295.08108453 115.8409774 -312.60449219 112.82861328 C-320.31575955 111.49985977 -327.97344487 110.01202831 -335.625 108.375 C-343.33916378 106.72643659 -351.04832329 105.26200285 -358.83837891 104.02294922 C-363.26063211 103.31300539 -367.62546266 102.47100714 -372 101.5 C-380.28248812 99.67214055 -388.62497629 98.32291613 -397 97 C-397.38526855 96.938125 -397.38526855 96.938125 -399.33496094 96.625 C-410.35916024 94.86186275 -421.40128691 93.44527355 -432.49511719 92.19750977 C-441.58828312 91.17323583 -450.67004176 90.07176317 -459.75 88.9375 C-461.05743164 88.77515869 -462.36486328 88.61281738 -463.71191406 88.44555664 C-471.15204514 87.51293517 -478.57235061 86.49864995 -485.98535156 85.36938477 C-488.69813984 85.03698692 -491.27148377 84.92871387 -494 85 Z M62 182 C62 182.66 62 183.32 62 184 C63.65 183.67 65.3 183.34 67 183 C67 182.67 67 182.34 67 182 C65.35 182 63.7 182 62 182 Z M480.6171875 148.25 C476.95230402 151.93131793 473.46607755 155.70759322 470.07421875 159.640625 C466.96572299 163.17646575 463.75937985 166.62022151 460.55078125 170.06518555 C457.39401243 173.46117825 454.33868508 176.92373343 451.3125 180.4375 C445.08777458 187.32916029 437.93746361 191.16159222 429.64355469 195.18212891 C425.69275914 197.10717135 421.87437895 199.18588416 418.07495117 201.39404297 C410.5913075 205.73915016 403.11225152 209.34844559 394.96142578 212.28955078 C393.6302431 212.77171926 392.30314914 213.26529855 390.97998047 213.76904297 C378.78124605 218.40484874 366.55581146 220.74623121 353.66259766 222.609375 C351.39805366 222.94160225 349.14275003 223.30261728 346.88671875 223.6875 C333.07966481 225.93915999 320.09027774 224.91317159 306.30004883 223.27856445 C296.71234159 222.1507903 287.11988419 221.28895371 277.5 220.5 C266.06800639 219.5574014 254.67620321 218.45256736 243.28125 217.125 C234.03403072 216.06817494 224.77471876 215.26624183 215.5 214.5 C204.06812502 213.55554217 192.67628432 212.45257681 181.28125 211.125 C171.2795911 209.98195327 161.26086097 209.14088829 151.22946167 208.3125 C141.65390595 207.51908906 132.10704205 206.61613373 122.5625 205.5 C111.26552217 204.17974146 99.95687544 203.21821855 88.62081909 202.31552124 C77.36045748 201.41533157 66.15226157 200.31706183 54.94116211 198.9140625 C50.26066768 198.33440576 45.7288093 197.83168645 41 198 C41 198.66 41 199.32 41 200 C42.00417969 200.37511719 43.00835938 200.75023437 44.04296875 201.13671875 C45.4244908 201.65361475 46.80600053 202.17054366 48.1875 202.6875 C48.84169922 202.93177734 49.49589844 203.17605469 50.16992188 203.42773438 C59.30350023 206.84741537 68.39575428 210.37528242 77.48828125 213.90234375 C78.12297836 214.14854462 78.75767548 214.39474548 79.41160583 214.64840698 C80.05275833 214.89712555 80.69391083 215.14584412 81.35449219 215.40209961 C82.00204468 215.65329559 82.64959717 215.90449158 83.31677246 216.16329956 C84.66827867 216.68758791 86.01975903 217.21194292 87.37121582 217.73635864 C94.97908592 220.68737891 102.59252878 223.61703836 110.25 226.4375 C115.32819089 228.32258601 120.2200618 230.43467173 125.125 232.7265625 C132.05964825 235.79815941 139.25847511 238.27006301 146.38085938 240.86865234 C148.83774438 241.76522909 151.29409456 242.66324354 153.75 243.5625 C154.55912842 243.85866211 155.36825684 244.15482422 156.2019043 244.45996094 C161.57079739 246.43823419 166.85031867 248.57419458 172.11328125 250.8203125 C175.37584364 252.15359239 178.67467785 253.33232963 182 254.5 C187.37683162 256.39043039 192.63207053 258.46083068 197.87890625 260.68359375 C206.23214943 264.20680145 214.6346792 267.55439654 223.1875 270.5625 C228.39134059 272.39573704 233.47627715 274.40144151 238.5546875 276.5546875 C250.49997549 281.56574935 262.56661558 286.27872293 274.71484375 290.7734375 C276.59668591 291.47605158 278.47084534 292.20249278 280.31616211 292.99609375 C285.5531737 294.9550305 291.13643647 295.64672754 296.625 296.625 C297.84574219 296.85445312 299.06648438 297.08390625 300.32421875 297.3203125 C307.65092871 298.63676948 314.56477247 299.31537224 322 299 C322.76248047 298.97663574 323.52496094 298.95327148 324.31054688 298.92919922 C329.87941135 298.7341663 335.44055726 298.37176251 341 298 C341.83305664 297.94618164 342.66611328 297.89236328 343.52441406 297.83691406 C355.86679806 296.98852495 367.22712887 294.78438451 379 291 C379.73307373 290.77731445 380.46614746 290.55462891 381.22143555 290.32519531 C386.63999066 288.62639876 391.47458255 286.36839048 396.4375 283.625 C397.92503539 282.81373506 399.41331323 282.00382995 400.90234375 281.1953125 C401.25546631 281.00340332 401.25546631 281.00340332 403.04248047 280.03222656 C405.48154766 278.74607339 407.98378465 277.62619341 410.5 276.5 C415.1503038 274.21425745 418.33676593 270.99178493 421.8671875 267.24609375 C423.75275422 265.26037788 425.6716189 263.46586374 427.75 261.6875 C432.02536826 258.02167219 436.14235819 254.1945838 440.25683594 250.3503418 C440.51996582 250.10562134 440.51996582 250.10562134 441.8515625 248.8671875 C442.37322998 248.38137207 442.89489746 247.89555664 443.43237305 247.39501953 C444.93297346 246.05964642 446.52640162 244.83084131 448.12109375 243.609375 C451.54026948 240.51031206 453.33647319 237.42735847 455.4375 233.375 C456.21102156 231.94004491 456.98707779 230.50645335 457.765625 229.07421875 C458.14267578 228.37731934 458.51972656 227.68041992 458.90820312 226.96240234 C460.39128456 224.29670275 462.02137883 221.74197338 463.6875 219.1875 C464.79242918 217.45882048 465.89663178 215.72967626 467 214 C467.51304687 213.21496094 468.02609375 212.42992187 468.5546875 211.62109375 C479.35727916 193.73804694 483.78128885 167.61400582 483 147 C482 147 482 147 480.6171875 148.25 Z M-485 146 C-486.52841267 154.09972363 -485.06020384 160.48791401 -482.9375 168.375 C-482.61531494 169.60782715 -482.29312988 170.8406543 -481.96118164 172.11083984 C-480.99832077 175.74768261 -480.00701451 179.37515713 -479 183 C-478.72671875 183.98677734 -478.4534375 184.97355469 -478.171875 185.99023438 C-475.83044756 194.2867719 -473.51854033 202.18656806 -468.69921875 209.421875 C-466.45261361 212.83051728 -464.48793792 216.37363202 -462.5 219.9375 C-462.10675537 220.63311035 -461.71351074 221.3287207 -461.30834961 222.04541016 C-459.65133268 224.98529008 -458.04044193 227.91802899 -456.546875 230.9453125 C-452.48069935 239.15114891 -446.61665222 245.57914909 -440.49755859 252.30371094 C-439.16330619 253.81502259 -437.91988535 255.40542837 -436.69140625 257.00390625 C-433.27930335 261.13709885 -428.83604521 264.03731084 -424.5 267.125 C-422.82230909 268.33509559 -421.14520855 269.54601018 -419.46875 270.7578125 C-418.68363037 271.32072998 -417.89851074 271.88364746 -417.08959961 272.46362305 C-415.44225076 273.67483537 -413.85167984 274.96326713 -412.28515625 276.27734375 C-409.61106341 278.29319835 -407.08650156 279.30979065 -403.9375 280.4375 C-399.58170791 282.03968674 -395.27363639 283.6895219 -391 285.5 C-385.74427136 287.71367114 -380.44027786 289.77414094 -375.10546875 291.7890625 C-372 293 -372 293 -368.6796875 294.578125 C-364.36511461 296.24532726 -360.51672985 296.75038546 -355.9375 297.125 C-355.50759766 297.16391357 -355.50759766 297.16391357 -353.33203125 297.36083984 C-344.12908101 298.15151118 -334.89318872 298.66991583 -325.65966797 298.92358398 C-323.87648707 298.97481729 -322.09388718 299.05277288 -320.31298828 299.15649414 C-311.63336067 299.47848756 -303.6578509 297.71295017 -295.26318359 295.74682617 C-292.87483052 295.18746031 -290.48299647 294.64584451 -288.08984375 294.10742188 C-275.389337 291.22557733 -263.4837775 287.53461968 -251.375 282.6875 C-248.86800329 281.69194791 -246.35976776 280.69953385 -243.8515625 279.70703125 C-242.65950195 279.23475098 -241.46744141 278.7624707 -240.23925781 278.27587891 C-234.57869297 276.04629556 -228.88230331 273.91884653 -223.17675781 271.80712891 C-218.48909022 270.06896952 -213.80711081 268.31556093 -209.125 266.5625 C-208.09407227 266.17650635 -207.06314453 265.7905127 -206.00097656 265.39282227 C-199.08536637 262.79755413 -192.19326137 260.14755786 -185.31396484 257.45776367 C-175.51471558 253.63031584 -165.67369128 249.93037818 -155.75 246.4375 C-150.46941221 244.56605015 -145.31626062 242.49212572 -140.16015625 240.3046875 C-135.3103567 238.30242168 -130.39023621 236.49491024 -125.47265625 234.66796875 C-120.47033768 232.80855058 -115.48537227 230.90429156 -110.5 229 C-104.40123276 226.67296813 -98.30050988 224.35188213 -92.1875 222.0625 C-91.56601074 221.82974365 -90.94452148 221.5969873 -90.30419922 221.35717773 C-87.29296357 220.23031278 -84.28116392 219.10496518 -81.26904297 217.98046875 C-78.22064835 216.84216009 -75.1726971 215.70267483 -72.125 214.5625 C-71.1033374 214.18037354 -70.0816748 213.79824707 -69.02905273 213.40454102 C-61.83757362 210.70752175 -54.6704239 207.95333139 -47.53173828 205.11938477 C-44.37764002 203.87632553 -41.29924365 202.77374043 -38 202 C-38 201.34 -38 200.68 -38 200 C-39.33320679 199.97222486 -40.66659713 199.95326659 -42 199.9375 C-42.7425 199.92589844 -43.485 199.91429687 -44.25 199.90234375 C-47.12345087 200.00438391 -49.9212725 200.37121736 -52.76953125 200.74829102 C-57.68468141 201.302967 -62.63844219 201.40339082 -67.578125 201.60546875 C-71.40110165 201.77550912 -75.17570665 201.98224383 -78.96875 202.5 C-84.69223888 203.27577409 -90.45667516 203.38210937 -96.22265625 203.60546875 C-100.18591985 203.77276809 -104.10254341 203.96743299 -108.03515625 204.5 C-112.67119037 205.08464273 -117.27164937 205.30810668 -121.9375 205.5 C-126.81210433 205.70139911 -131.65332168 205.9244736 -136.5 206.5 C-142.19453345 207.17620628 -147.90044976 207.36995376 -153.62695312 207.60546875 C-157.44245119 207.77609241 -161.20998338 207.98695117 -164.99609375 208.5 C-170.49950924 209.24529012 -176.03401092 209.37866408 -181.578125 209.60546875 C-185.41117161 209.77595702 -189.19649185 209.98446426 -193 210.5 C-198.50204308 211.24575885 -204.03531691 211.37871751 -209.578125 211.60546875 C-213.40110165 211.77550912 -217.17570665 211.98224383 -220.96875 212.5 C-226.69223888 213.27577409 -232.45667516 213.38210937 -238.22265625 213.60546875 C-242.18591985 213.77276809 -246.10254341 213.96743299 -250.03515625 214.5 C-254.67119037 215.08464273 -259.27164937 215.30810668 -263.9375 215.5 C-268.81210433 215.70139911 -273.65332168 215.9244736 -278.5 216.5 C-284.19453345 217.17620628 -289.90044976 217.36995376 -295.62695312 217.60546875 C-299.44245119 217.77609241 -303.20998338 217.98695117 -306.99609375 218.5 C-312.49950924 219.24529012 -318.03401092 219.37866408 -323.578125 219.60546875 C-328.03678224 219.80378326 -332.40511891 220.1452935 -336.83300781 220.73730469 C-351.83080489 222.5554243 -365.65652223 222.87062566 -379.96533203 217.73046875 C-382.00576855 216.99792902 -384.05746903 216.3203825 -386.12109375 215.65625 C-389.76188364 214.47852902 -393.38073801 213.24249304 -397 212 C-397.64340332 211.80704346 -398.28680664 211.61408691 -398.94970703 211.4152832 C-406.22820939 209.1761944 -412.95551884 205.84052307 -419.75 202.4375 C-420.37383575 202.12631226 -420.99767151 201.81512451 -421.64041138 201.49450684 C-430.95093781 196.82420564 -439.08750689 191.80790006 -447 185 C-448.11499044 184.16193095 -449.23775562 183.33412793 -450.3671875 182.515625 C-456.2826632 178.22022096 -461.35902353 173.91066335 -465.75 167.99609375 C-468.84037508 163.88095887 -472.14522094 159.95428873 -475.4375 156 C-476.66739319 154.52251964 -477.89539486 153.04346174 -479.12109375 151.5625 C-479.6514624 150.92441406 -480.18183105 150.28632813 -480.72827148 149.62890625 C-482 148 -482 148 -483 146 C-483.66 146 -484.32 146 -485 146 Z M51 220 C51.33 220.66 51.66 221.32 52 222 C52.66 222 53.32 222 54 222 C54 221.34 54 220.68 54 220 C53.01 220 52.02 220 51 220 Z M-51 222 C-51 222.66 -51 223.32 -51 224 C-50.01 223.67 -49.02 223.34 -48 223 C-48.99 222.67 -49.98 222.34 -51 222 Z M54 222 C57.5984899 225.8201958 61.39525957 228.83358602 65.77734375 231.73046875 C66.42514297 232.16579422 67.0729422 232.60111969 67.7403717 233.04963684 C69.80256503 234.43426142 71.86968074 235.81129472 73.9375 237.1875 C76.63609051 238.99055058 79.332395 240.79698003 82.02734375 242.60546875 C82.69126633 243.05049744 83.3551889 243.49552612 84.03923035 243.95404053 C89.20252184 247.42899468 94.28493039 251.00753712 99.32847595 254.65385437 C102.77273083 257.14222438 106.26424766 259.53749064 109.8125 261.875 C121.68000104 269.73406319 133.15011904 277.96909579 144.19921875 286.94140625 C148.17793315 290.16434091 152.23701671 293.27583717 156.3125 296.375 C162.31873556 300.94502165 168.29730938 305.54791215 174.25 310.1875 C179.32190671 314.14015248 184.39920011 318.08468752 189.5 322 C194.68315801 325.97898999 199.84439862 329.98537918 205 334 C212.31281434 339.69377206 219.64770078 345.35732054 227 351 C228.62247972 352.24737703 230.24458497 353.49523865 231.86645508 354.7434082 C232.94525978 355.57327037 234.02451564 356.4025464 235.10424805 357.23120117 C237.94671502 359.41369404 240.77983759 361.60714288 243.6015625 363.81640625 C244.19130859 364.27595703 244.78105469 364.73550781 245.38867188 365.20898438 C246.520203 366.09104407 247.64924346 366.97631111 248.77539062 367.86523438 C251.19277924 369.74474639 253.06658358 371.02219453 256 372 C256 372.66 256 373.32 256 374 C233.18856152 359.03844455 210.4363744 343.99812585 187.84664917 328.70352173 C174.04859459 319.36489222 160.17510096 310.14799656 146.25 301 C85.10879972 260.82313926 85.10879972 260.82313926 67.37280273 246.38623047 C64.90742741 244.39529548 63.03719621 243.01239874 60 242 C60 241.34 60 240.68 60 240 C55.52941176 236 55.52941176 236 53 236 C53 235.34 53 234.68 53 234 C51.68 233.67 50.36 233.34 49 233 C54.20019607 240.42885154 60.34974379 246.84420878 66.54199219 253.4375 C70.39472204 257.56634646 74.04035694 261.87205385 77.69921875 266.171875 C83.53018213 273.01518479 89.45408334 279.73983217 95.5546875 286.34375 C99.71504527 290.86298847 103.72685535 295.50178609 107.70703125 300.1796875 C113.46087831 306.93477533 119.29088008 313.58584616 125.33203125 320.0859375 C126.67516736 321.55296465 128.01815668 323.02141981 129.30427551 324.53868103 C135.43646911 331.76172911 142.18956335 338.39312919 148.8671875 345.10546875 C149.53460087 345.77695765 150.20201424 346.44844654 150.88965225 347.14028358 C154.42705381 350.6984519 157.96766004 354.25339679 161.51074219 357.8059082 C165.12389293 361.43006818 168.72521012 365.06574965 172.32391167 368.70424938 C175.13312992 371.53992482 177.95149695 374.36638054 180.77219009 377.19063759 C182.10131338 378.52455668 183.42713072 379.86178015 184.74920273 381.20268822 C193.65840216 390.23082289 202.97984879 398.17162545 213.20732498 405.67579079 C215.66901781 407.49418859 218.08207317 409.37400335 220.5 411.25 C230.44485639 418.41150022 241.86963207 423.47718228 252.82104492 428.90136719 C259.05376421 431.99739858 265.20788976 435.23757907 271.35498047 438.49975586 C272.8551125 439.29499686 274.35736431 440.08625337 275.86181641 440.87329102 C277.22663744 441.59247908 278.58406604 442.32599894 279.93115234 443.07788086 C285.57818935 446.12432777 291.40336139 447.59898866 297.625 449.0625 C298.69024902 449.31854004 299.75549805 449.57458008 300.85302734 449.83837891 C302.95817442 450.34152603 305.06443051 450.84006021 307.171875 451.33349609 C309.51621705 451.88598692 311.85248685 452.46055489 314.1875 453.05078125 C327.10019653 456.14689371 339.89519909 455.02782752 353 454 C353.50318455 436.43646314 348.3563981 422.03723883 339.3203125 407.23632812 C337.40911438 403.99916563 335.79820647 400.64354245 334.1875 397.25 C329.42511596 387.63558705 322.72403954 380.35647276 315.46435547 372.57324219 C313.55437816 370.52124255 311.65775013 368.4572561 309.76416016 366.39013672 C308.83502396 365.37674143 307.90369041 364.36535658 306.97021484 363.35595703 C304.90494169 361.11681228 302.8852087 358.86146629 300.94140625 356.515625 C293.7835856 347.97647054 284.88844227 341.61564731 276 335 C275.04480469 334.27296875 274.08960938 333.5459375 273.10546875 332.796875 C268.12499096 329.12965752 262.86570725 326.30841138 257.31152344 323.62329102 C253.42893939 321.7434855 249.70264139 319.71171113 246 317.5 C241.74823358 314.96703277 237.44223541 312.68215073 233 310.5 C227.52778211 307.81189297 222.29768327 304.86883259 217.0625 301.75 C213.76498626 299.86570643 210.40861677 298.17440824 207 296.5 C202.55776459 294.31784927 198.25176642 292.03296723 194 289.5 C189.82735527 287.0162829 185.60901741 284.76506058 181.25 282.625 C176.10374611 280.09711485 171.10177279 277.4079276 166.125 274.5625 C155.20784572 268.35094728 144.20782759 262.53493427 132.35546875 258.30078125 C124.1183539 255.10758073 116.15853251 251.17676551 108.1875 247.375 C107.25260742 246.92987061 106.31771484 246.48474121 105.35449219 246.02612305 C98.58423775 242.77871935 91.86530396 239.43794551 85.16015625 236.05859375 C84.30443527 235.62790588 83.44871429 235.19721802 82.56706238 234.753479 C78.24387505 232.57672892 73.92444588 230.39296695 69.61010742 228.19873047 C68.00580481 227.38878306 66.40139861 226.57904077 64.796875 225.76953125 C64.05409805 225.38880966 63.31132111 225.00808807 62.54603577 224.61582947 C57.34020437 222 57.34020437 222 54 222 Z M-59.25 226 C-63.75367049 228.3984044 -68.31481607 230.49097038 -73 232.5 C-77.30645347 234.35906467 -81.57656848 236.22908663 -85.75 238.375 C-90.66628635 240.89957948 -95.70294841 243.12782035 -100.75 245.375 C-106.56599568 247.96735158 -112.32607135 250.60925436 -118 253.5 C-123.59180734 256.34865657 -129.26635527 258.94969365 -135 261.5 C-140.64686415 264.01263405 -146.24170989 266.56711553 -151.75 269.375 C-159.16034419 273.1507468 -166.72377564 276.57638708 -174.29980469 280.00537109 C-178.90700396 282.09658749 -183.48433449 284.21701033 -188 286.5 C-193.51125889 289.28633284 -199.12485742 291.82852234 -204.75 294.375 C-213.5940726 298.40597187 -222.39376991 302.47739036 -231 307 C-231.76771729 307.39775635 -232.53543457 307.7955127 -233.32641602 308.20532227 C-241.3083632 312.43277905 -248.79872125 317.32138008 -256.3125 322.3125 C-258.15275184 323.52951534 -259.99382582 324.7452638 -261.83576965 325.9597168 C-263.06971329 326.77523067 -264.3015387 327.59395805 -265.53129578 328.41577148 C-268.43289587 330.34779213 -271.33304203 332.19365337 -274.34887695 333.94726562 C-284.98106935 340.2333448 -293.34633525 348.55235893 -302.00463867 357.29785156 C-304.54248223 359.85483129 -307.10817889 362.38118792 -309.67773438 364.90625 C-324.98277056 380.13100402 -336.56337155 396.15005769 -345.12841797 415.98950195 C-345.91236862 417.7978587 -346.74247849 419.58603698 -347.578125 421.37109375 C-349.42819395 426.09283565 -350.52016997 430.8714546 -351.625 435.8125 C-352.05255298 437.69449661 -352.48213939 439.57603278 -352.9140625 441.45703125 C-353.0992041 442.28178955 -353.2843457 443.10654785 -353.47509766 443.95629883 C-354 446 -354 446 -355 448 C-355.039992 449.99960012 -355.04346799 452.00047242 -355 454 C-335.07138716 456.15784192 -318.50469024 454.38671607 -299.13134766 448.88427734 C-296.46364107 448.13092998 -293.79174615 447.42140724 -291.10546875 446.73828125 C-280.07848337 443.85402989 -270.13794138 439.14308142 -260 434 C-259.17612793 433.59056152 -258.35225586 433.18112305 -257.50341797 432.75927734 C-248.48501339 428.27202833 -240.00912955 423.69491222 -232.0859375 417.4140625 C-227.67683327 413.96491514 -223.08197594 410.79629338 -218.48779297 407.60009766 C-217.13269452 406.65202031 -215.78224572 405.69726497 -214.43635559 404.73616028 C-212.80544504 403.57396453 -211.16554856 402.42428159 -209.51716614 401.28700256 C-199.92257616 394.42993084 -191.82761606 386.2279152 -183.54296875 377.87109375 C-181.98563868 376.31069811 -180.42771015 374.75089954 -178.86921692 373.19166565 C-175.62312988 369.94100443 -172.38197691 366.68553508 -169.14477539 363.42602539 C-165.01171113 359.26461056 -160.86995678 355.11198418 -156.72492504 350.96249294 C-152.74444556 346.97684151 -148.76865102 342.98652932 -144.79296875 338.99609375 C-144.41829814 338.62048278 -144.41829814 338.62048278 -142.52223778 336.71966362 C-140.3861686 334.57666128 -138.25350143 332.43033103 -136.12182617 330.28295898 C-135.81188469 329.97245857 -135.81188469 329.97245857 -134.24339294 328.40113831 C-130.55287081 324.67487948 -127.04176538 320.83528389 -123.61999989 316.86055088 C-120.81391234 313.63779223 -117.87116282 310.5437543 -114.9375 307.4375 C-113.61442797 306.03139618 -112.29151498 304.62514268 -110.96875 303.21875 C-110.30617188 302.51492188 -109.64359375 301.81109375 -108.9609375 301.0859375 C-105.94480774 297.87754449 -102.94061762 294.65806865 -99.9375 291.4375 C-98.78255794 290.19921329 -97.62761002 288.96093204 -96.47265625 287.72265625 C-95.9017627 287.1105127 -95.33086914 286.49836914 -94.74267578 285.86767578 C-92.97394678 283.97207802 -91.20394751 282.07767412 -89.43359375 280.18359375 C-83.4497499 273.78023353 -77.48021144 267.36457275 -71.54296875 260.91796875 C-68.27098596 257.36825798 -64.98207845 253.83487811 -61.68408203 250.30932617 C-59.33782628 247.80063733 -56.99544804 245.28835473 -54.65429688 242.77490234 C-53.57345581 241.61526324 -52.49147286 240.45668711 -51.40820312 239.29931641 C-49.97549238 237.76657406 -48.54931393 236.2280421 -47.125 234.6875 C-46.32320313 233.82511719 -45.52140625 232.96273437 -44.6953125 232.07421875 C-43 230 -43 230 -43 228 C-45.78828763 229.31997698 -48.24324231 230.79529493 -50.73046875 232.6171875 C-51.44203125 233.13539063 -52.15359375 233.65359375 -52.88671875 234.1875 C-53.64597656 234.744375 -54.40523438 235.30125 -55.1875 235.875 C-56.81583496 237.0606808 -58.44475473 238.24555883 -60.07421875 239.4296875 C-60.89841309 240.0287793 -61.72260742 240.62787109 -62.57177734 241.24511719 C-66.19237106 243.86172966 -69.84430906 246.43276267 -73.5 249 C-80.19813804 253.70992093 -86.84808138 258.48317221 -93.48046875 263.28515625 C-98.53633038 266.94538941 -103.6048214 270.58683714 -108.69238281 274.20288086 C-111.83243766 276.43831786 -114.95418399 278.69573401 -118.05859375 280.98046875 C-133.99437117 292.67560786 -150.61531174 303.28549607 -167.35253906 313.78881836 C-172.80326211 317.21729296 -178.16981641 320.75489942 -183.50976562 324.3527832 C-188.60682485 327.77299773 -193.80144185 331.02017948 -199.02026367 334.25048828 C-204.21168914 337.47614271 -209.29659032 340.84076092 -214.36425781 344.2565918 C-218.7662188 347.21096274 -223.23597641 350.03304731 -227.75 352.8125 C-234.84181619 357.18082631 -241.70869195 361.84402235 -248.53027344 366.62231445 C-252.57641178 369.4360629 -256.5171926 371.94478319 -261 374 C-261 373.34 -261 372.68 -261 372 C-260.25878906 371.73316406 -259.51757812 371.46632813 -258.75390625 371.19140625 C-256.05692265 370.02462611 -254.20413795 368.78487544 -251.9375 366.9375 C-248.47699968 364.17137639 -244.98644712 361.46456646 -241.4375 358.8125 C-240.42042969 358.05195312 -239.40335937 357.29140625 -238.35546875 356.5078125 C-237.81583496 356.1046582 -237.27620117 355.70150391 -236.72021484 355.28613281 C-234.23360371 353.42699749 -231.75012473 351.56369687 -229.26660156 349.70043945 C-227.91063938 348.6831395 -226.55451689 347.66605318 -225.19824219 346.64916992 C-221.82690196 344.12146026 -218.45683417 341.59209522 -215.08984375 339.05859375 C-208.02717728 333.74763168 -200.93711493 328.47760633 -193.8125 323.25 C-186.98571456 318.23835272 -180.22554064 313.14662989 -173.5 308 C-165.99720581 302.25858725 -158.4391825 296.60206468 -150.82128906 291.0144043 C-145.77374236 287.31142143 -140.75210652 283.57660654 -135.75 279.8125 C-133.80632756 278.35366022 -131.86208886 276.89558019 -129.91748047 275.43798828 C-128.63186789 274.47386069 -127.34704515 273.50867904 -126.06298828 272.54248047 C-118.54789847 266.89809971 -110.99807195 261.60657733 -102.9296875 256.7734375 C-100.31257469 255.18921188 -97.77714122 253.53515336 -95.25 251.8125 C-91.80204699 249.48482053 -88.27315291 247.44836658 -84.62109375 245.4609375 C-73.1659098 239.07608087 -62.09521861 231.98371841 -51 225 C-54.63471383 223.9393227 -55.91261688 224.13293252 -59.25 226 Z M-36 252 C-41.63665245 258.56337481 -47.19159172 265.16709131 -52.5 272 C-56.06724705 276.59090289 -59.7183374 281.08403297 -63.5 285.5 C-67.71114628 290.42145113 -71.75562971 295.44796403 -75.734375 300.55859375 C-79.80307683 305.77664638 -83.97405589 310.90687067 -88.15917969 316.03173828 C-91.70067105 320.37715869 -95.1813968 324.76425106 -98.625 329.1875 C-102.15207036 333.71356717 -105.76989751 338.13984833 -109.5 342.5 C-113.30314231 346.94918892 -117.00913267 351.45955715 -120.625 356.0625 C-121.03169922 356.57941406 -121.43839844 357.09632813 -121.85742188 357.62890625 C-123.24885796 359.41134242 -124.62570145 361.20431 -126 363 C-126.6717627 363.87309814 -127.34352539 364.74619629 -128.03564453 365.64575195 C-133.56932421 372.91744439 -138.66710643 380.38502929 -143.625 388.0625 C-144.3365625 389.15626953 -145.048125 390.25003906 -145.78125 391.37695312 C-147.18578678 393.53906514 -148.58604897 395.70396096 -149.98168945 397.87182617 C-151.3135368 399.93605262 -152.65564089 401.99370199 -154.00854492 404.04418945 C-154.63092041 404.99640381 -155.2532959 405.94861816 -155.89453125 406.9296875 C-156.44471924 407.7635498 -156.99490723 408.59741211 -157.56176758 409.45654297 C-160.10455534 413.95336234 -161.27344349 418.71403381 -162.44894409 423.71762085 C-163.07903374 426.32734422 -163.77630344 428.91576044 -164.47094727 431.5090332 C-168.31032828 446.358489 -170.00856442 460.38586199 -169.89208984 475.71435547 C-169.8749569 479.1336006 -169.93310279 482.54624151 -169.99609375 485.96484375 C-170.08850409 500.75764792 -168.67060147 516.91499699 -161 530 C-158.86813354 531.28128052 -158.86813354 531.28128052 -157 532 C-156.64550781 531.5359375 -156.29101562 531.071875 -155.92578125 530.59375 C-151.48778263 524.83402297 -146.92393259 519.18279355 -142.32348633 513.55273438 C-141.22127182 512.20202375 -140.12745647 510.84443954 -139.03955078 509.48217773 C-137.54182759 507.65941598 -135.99007519 505.88070633 -134.40966797 504.12915039 C-124.33339015 492.67892752 -118.03759317 479.19858778 -111.42944336 465.59344482 C-110.184 463.03950079 -108.9218967 460.49396886 -107.65901947 457.94861126 C-106.13136482 454.86838242 -104.61168705 451.78424575 -103.09375 448.69921875 C-102.53957397 447.57295578 -101.98539795 446.44669281 -101.41442871 445.28630066 C-97.31085276 436.85177541 -93.67478623 428.37529033 -90.8125 419.4375 C-88.59535176 412.63699579 -86.18820853 405.91154884 -83.75 399.1875 C-80.57259775 390.42010047 -77.47081037 381.63076659 -74.4375 372.8125 C-72.96200898 368.54038697 -71.48276806 364.26959267 -70 360 C-69.6611377 359.02369629 -69.32227539 358.04739258 -68.97314453 357.04150391 C-64.61482665 344.55786915 -59.72224262 332.47944195 -54.14990234 320.48974609 C-51.8036067 315.40959259 -49.5383341 310.2924948 -47.2565918 305.18310547 C-45.50474277 301.27827401 -43.72297391 297.39613457 -41.84375 293.55078125 C-41.51068848 292.86346924 -41.17762695 292.17615723 -40.83447266 291.46801758 C-39.93845122 289.63014765 -39.02834459 287.79916335 -38.1171875 285.96875 C-36.99356425 282.98289801 -36.77092043 281.88197968 -38 279 C-42.35945894 285.95964385 -46.57734674 292.92813473 -50.46484375 300.1640625 C-56.10361535 310.58072455 -62.18789495 320.75114837 -68.25610352 330.92114258 C-71.49664352 336.37328296 -74.60722778 341.87850998 -77.62451172 347.45727539 C-86.69031985 364.21630835 -96.38151376 380.57693273 -106.67089844 396.61108398 C-111.22837679 403.73198885 -115.61342274 410.94270081 -119.93725586 418.20727539 C-123.51501783 424.21395438 -127.21053846 430.12431894 -131 436 C-132.67477666 438.66169861 -134.33780557 441.33041501 -136 444 C-135.33834679 441.0124073 -134.36727093 438.37298179 -133.109375 435.5859375 C-132.73232422 434.74804688 -132.35527344 433.91015625 -131.96679688 433.046875 C-131.56525391 432.16515625 -131.16371094 431.2834375 -130.75 430.375 C-130.33814453 429.46492187 -129.92628906 428.55484375 -129.50195312 427.6171875 C-127.22893328 422.61869837 -124.87834927 417.68065168 -122.3671875 412.796875 C-120.34620276 408.66251765 -118.49754658 404.45324883 -116.625 400.25 C-113.48500837 393.21590135 -110.23501039 386.27890546 -106.73828125 379.4140625 C-105.50888299 376.99946906 -104.29764251 374.5811736 -103.10546875 372.1484375 C-96.92178079 359.55823983 -90.2555758 347.33383913 -82.609375 335.56640625 C-80.43192992 332.09412125 -78.52803141 328.4964748 -76.59765625 324.8828125 C-74.82794616 321.68954589 -72.93028051 318.59870457 -71 315.5 C-68.05288385 310.76237177 -65.31544853 305.97002563 -62.6796875 301.0546875 C-59.37211149 295.03951439 -55.82988572 289.15829524 -52.33203125 283.25244141 C-50.56010542 280.256146 -48.79794525 277.25416043 -47.03564453 274.25219727 C-43.05938736 267.47987471 -39.06241057 260.7211427 -35 254 C-35.33 253.34 -35.66 252.68 -36 252 Z M43 259 C43.33 259.99 43.66 260.98 44 262 C44 261.01 44 260.02 44 259 C43.67 259 43.34 259 43 259 Z M45 262 C45.69905485 265.97772053 47.63586307 269.25921663 49.5625 272.75 C52.38836603 277.95567608 55.12754742 283.18898833 57.75 288.5 C61.42485314 295.91637235 65.24145775 303.25445114 69.08056641 310.58691406 C72.96218241 318.00286262 76.81457793 325.43339734 80.6546936 332.87088013 C85.20213801 341.67757581 89.75650452 350.48028562 94.375 359.25 C94.76727783 359.99620605 95.15955566 360.74241211 95.5637207 361.51123047 C97.49649159 365.1797086 99.44986433 368.83536973 101.43359375 372.4765625 C105.43765707 379.85880023 109.02234614 387.10620202 111.890625 395.0234375 C112.97115976 397.9226188 114.19153337 400.69729679 115.5 403.5 C117.73488168 408.32263941 119.66140594 413.21778488 121.54296875 418.1875 C123.3548304 422.95678743 125.23834884 427.697402 127.125 432.4375 C127.46184814 433.29013428 127.79869629 434.14276855 128.14575195 435.02124023 C129.56203425 438.57227996 131.00102321 442.00200283 132.7421875 445.41015625 C134 448 134 448 134 451 C133.27211914 449.54423828 132.54429182 448.08844977 131.81665039 446.63256836 C131.13041485 445.26059782 130.44336583 443.88903395 129.75561523 442.51782227 C127.44808523 437.91308347 125.16153298 433.29870108 122.890625 428.67578125 C117.40616902 417.54656693 111.89926189 406.56728136 105.28857422 396.06347656 C102.52184461 391.63293494 99.83432852 387.15327843 97.125 382.6875 C93.76070264 377.15296469 90.39282446 371.62132439 86.97265625 366.12109375 C77.8792618 351.47341505 70.13043431 336.51852146 63.0222168 320.80981445 C60.10338608 314.36540961 57.07110347 308.00463355 53.86499023 301.69897461 C50.06864601 294.21582455 46.53987496 286.60696534 43 279 C42.34 279 41.68 279 41 279 C42.16254721 285.02410825 43.84418785 290.70110108 45.83081055 296.50415039 C47.8558058 302.46296575 49.6862913 308.47391728 51.5 314.5 C53.41855389 320.86370829 55.36440699 327.2056206 57.5 333.5 C59.63559937 339.79439813 61.58093517 346.13643432 63.5 352.5 C65.78486411 360.07166372 68.14830284 367.59546696 70.69921875 375.08203125 C71.71189142 378.08532005 72.65512867 381.10588567 73.58203125 384.13671875 C77.36143532 396.440899 81.74270945 408.25153488 87 420 C87.42925781 420.96421875 87.85851562 421.9284375 88.30078125 422.921875 C89.05917185 424.60023769 89.82613199 426.27475416 90.6015625 427.9453125 C91.76786397 430.49293192 92.90147965 433.04992622 94.0234375 435.6171875 C98.49557319 445.80047952 103.29148382 455.44419359 109 465 C110.34421595 467.3271615 111.67193174 469.66359558 113 472 C113.67029266 473.17333723 114.34086484 474.34651482 115.01171875 475.51953125 C116.30746398 477.78692747 117.60143774 480.05530622 118.89453125 482.32421875 C119.8585707 484.01472377 120.82268592 485.70519733 121.79345703 487.3918457 C123.76334654 490.81570129 125.69496403 494.25703282 127.59765625 497.71875 C132.30705562 506.1949998 136.88215558 513.68793459 143.71484375 520.62890625 C146.58512093 523.60712548 148.95565195 526.8444101 151.33203125 530.22265625 C153.34959803 532.3725225 155.22505138 533.09072142 158 534 C160.74177887 531.25822113 160.74905917 529.0617063 161.4375 525.25 C161.50066406 524.90094604 161.50066406 524.90094604 161.8203125 523.13452148 C163.03823484 516.19552957 163.9595546 509.21726357 164.86816406 502.23217773 C165.63820217 496.38527228 166.58777137 490.60545523 167.6875 484.8125 C169.49958899 474.92524637 169.51298828 466.94679767 166.84375 457.24609375 C165.94925936 453.80478947 165.30475641 450.37646047 164.6875 446.875 C163.32374488 439.45535744 161.83435614 432.06307691 160.25 424.6875 C160.03432373 423.60259277 159.81864746 422.51768555 159.59643555 421.39990234 C158.07293931 414.49120789 155.73051733 409.28232235 151.69165039 403.46679688 C149.99376711 400.99091108 148.57772154 398.47110999 147.1875 395.8125 C140.61484259 383.60613625 133.07158157 372.4162322 124.33935547 361.66601562 C122.19794314 359.00232664 120.13306531 356.2813613 118.0625 353.5625 C114.43763069 348.82367824 110.73781835 344.15014776 107 339.5 C100.73414572 331.70282477 94.64833208 323.77813814 88.578125 315.828125 C84.11706799 309.99827383 79.59836918 304.22234993 75 298.5 C69.99825522 292.27567724 65.09886745 285.983056 60.25292969 279.63671875 C58.91547857 277.88958853 57.57175894 276.14742284 56.2265625 274.40625 C55.998479 274.11081299 55.998479 274.11081299 54.84423828 272.61572266 C53.97083567 271.48470911 53.09684517 270.35414922 52.22216797 269.22412109 C50.3974507 266.85774933 48.65869301 264.48803951 47 262 C46.34 262 45.68 262 45 262 Z M-37 276 C-37 276.99 -37 277.98 -37 279 C-36.34 279 -35.68 279 -35 279 C-35 278.01 -35 277.02 -35 276 C-35.66 276 -36.32 276 -37 276 Z M-23 288 C-23.17539307 288.67240723 -23.35078613 289.34481445 -23.53149414 290.03759766 C-26.8513275 302.70824122 -30.3100287 315.28568833 -34.37329102 327.73901367 C-36.93050326 335.63283091 -39.16733303 343.59938824 -41.37060547 351.59814453 C-43.61523123 359.71526456 -46.03054553 367.76987263 -48.51342773 375.81689453 C-50.29828303 381.62409368 -51.9754898 387.44841365 -53.5625 393.3125 C-56.7990453 405.17362739 -60.32888014 416.98856337 -65.65234375 428.09765625 C-67.39429739 431.849168 -68.94336785 435.66864274 -70.5 439.5 C-72.77524635 445.08325881 -75.15215089 450.59148349 -77.6875 456.0625 C-79.37600982 459.84154579 -80.93759647 463.6674375 -82.5 467.5 C-84.77598619 473.08297467 -87.15213348 478.59144594 -89.6875 484.0625 C-91.70547319 488.57891619 -93.56448493 493.16019822 -95.40087891 497.75317383 C-97.00607719 501.73616583 -98.7825414 505.43196014 -100.875 509.1875 C-103.24236507 514.40018563 -103.43380069 519.23229026 -103.609375 524.859375 C-103.6455191 525.82399155 -103.68166321 526.78860809 -103.71890259 527.78245544 C-103.82714514 530.85471576 -103.91705894 533.92695767 -104 537 C-104.01334381 537.48576004 -104.01334381 537.48576004 -104.08087158 539.94400024 C-104.70047721 564.29511535 -104.50347291 588.46489344 -101.75 612.6875 C-101.64757996 613.60709503 -101.54515991 614.52669006 -101.43963623 615.47415161 C-99.69098573 630.78424758 -96.34264089 645.18727523 -91.6875 659.875 C-89.04411397 668.36718307 -86.64607445 676.90111796 -84.375 685.5 C-80.32721282 700.67532472 -75.71235891 714.29481474 -68 728 C-67.32223866 729.32772805 -66.6492959 730.65812182 -66 732 C-63 731 -63 731 -61.96020508 729.39624023 C-61.64978271 728.70731689 -61.33936035 728.01839355 -61.01953125 727.30859375 C-60.66455566 726.53733154 -60.30958008 725.76606934 -59.94384766 724.97143555 C-59.57050293 724.13523682 -59.1971582 723.29903809 -58.8125 722.4375 C-58.00533069 720.68163615 -57.19671518 718.92643647 -56.38671875 717.171875 C-55.98372559 716.29337891 -55.58073242 715.41488281 -55.16552734 714.50976562 C-53.55171032 711.03468415 -51.85138838 707.60772022 -50.125 704.1875 C-49.80990479 703.5586792 -49.49480957 702.9298584 -49.17016602 702.28198242 C-47.19940855 698.35552628 -45.20182094 694.44345637 -43.1953125 690.53515625 C-42.21351835 688.60678271 -41.23174737 686.67839736 -40.25 684.75 C-39.78996582 683.8633667 -39.32993164 682.9767334 -38.85595703 682.06323242 C-33.14089666 670.80071181 -30.06010856 658.85088294 -26.90820312 646.67773438 C-26.63298828 645.63294922 -26.35777344 644.58816406 -26.07421875 643.51171875 C-25.78846481 642.42418808 -25.50271088 641.33665741 -25.20829773 640.21617126 C-24.35378391 637.11282839 -23.35647424 634.08390818 -22.29804993 631.04432678 C-17.53265753 617.07323077 -15.99726114 604.67439455 -16.09375 589.984375 C-16.08229191 587.72017637 -16.06755606 585.45599249 -16.04992676 583.1918335 C-16.01686782 578.19570939 -16.00464102 573.20008827 -16.00683594 568.20385742 C-16.00924549 560.2180596 -15.95258601 552.23314835 -15.8866291 544.24765873 C-15.77046199 530.17562541 -15.67784198 516.10357449 -15.60546875 502.03125 C-15.60105837 501.1775158 -15.59664799 500.3237816 -15.59210396 499.44417667 C-15.56533112 494.2444078 -15.53908889 489.04463635 -15.51302338 483.84486389 C-15.30836279 443.06693176 -15.09079507 402.29008573 -14.56195641 361.51482677 C-14.53157791 359.13506237 -14.50271511 356.755284 -14.47425842 354.37549591 C-14.42956868 350.66623383 -14.38029577 346.95706015 -14.32736969 343.24790668 C-14.29992913 341.26604199 -14.2763786 339.28412461 -14.25299072 337.30220795 C-14.15574174 330.93305358 -13.88507589 324.64774256 -13.21778107 318.31148148 C-12.90228855 314.96291167 -12.90419993 311.67580704 -12.9375 308.3125 C-12.94652344 307.11238281 -12.95554687 305.91226562 -12.96484375 304.67578125 C-12.97644531 303.79277344 -12.98804688 302.90976562 -13 302 C-13.66 302 -14.32 302 -15 302 C-15.13051758 303.05461426 -15.26103516 304.10922852 -15.39550781 305.19580078 C-22.55327003 362.97865809 -22.55327003 362.97865809 -25.93286133 384.76220703 C-26.7187172 389.89688707 -27.37101582 395.03589586 -27.96972656 400.19555664 C-29.75392211 415.44382042 -32.43870921 430.5018715 -35.19726562 445.59667969 C-35.99075988 449.94023167 -36.76960756 454.28633273 -37.546875 458.6328125 C-39.94978189 472.03608863 -42.4494687 485.41018864 -45.17602539 498.75219727 C-47.01941651 507.87162676 -48.57768829 517.03275518 -50.12524414 526.20629883 C-51.44787568 533.98134618 -52.9093408 541.71312955 -54.5 549.4375 C-56.70547766 560.15840264 -58.55218775 570.92360239 -60.30078125 581.72631836 C-61.40163726 588.51538914 -62.58394092 595.26910917 -64 602 C-64.1250812 595.49577759 -64.1250812 595.49577759 -63.53662109 593.16333008 C-62.83410939 590.3312299 -62.61191571 587.54303046 -62.3515625 584.63671875 C-62.23490234 583.36948975 -62.11824219 582.10226074 -61.99804688 580.79663086 C-61.93738037 580.12695282 -61.87671387 579.45727478 -61.81420898 578.76730347 C-60.89217773 568.63224666 -59.88987733 558.52097763 -58.5 548.4375 C-57.28981599 539.64197099 -56.35215591 530.83723408 -55.5 522 C-54.55549157 512.20994876 -53.46330366 502.46679342 -52.11621094 492.72436523 C-51.42210777 487.59448125 -50.84044119 482.47385754 -50.390625 477.31640625 C-48.98826836 461.2772269 -46.70138617 445.62618008 -43.82910156 429.79321289 C-43.51614493 428.06789487 -43.20332057 426.34255285 -42.890625 424.6171875 C-42.73370178 423.75179855 -42.57677856 422.88640961 -42.4151001 421.99479675 C-40.62103623 412.02125891 -39.06307427 402.01182378 -37.5 392 C-35.27671829 377.80883351 -32.93972525 363.64469885 -30.4375 349.5 C-29.86187591 346.24220574 -29.28631396 342.98440051 -28.7109375 339.7265625 C-28.64059547 339.32832779 -28.64059547 339.32832779 -28.28462219 337.3130188 C-26.81331873 328.96788963 -25.37470141 320.61737275 -23.96585083 312.26147461 C-23.70014443 310.68939016 -23.43267104 309.11760318 -23.16329956 307.54614258 C-22.79286996 305.38310298 -22.42878843 303.21908783 -22.06640625 301.0546875 C-21.85959229 299.83249512 -21.65277832 298.61030273 -21.43969727 297.35107422 C-21.02449211 294.18666222 -20.91700467 291.18665584 -21 288 C-21.66 288 -22.32 288 -23 288 Z M31 305 C30.56828321 314.2423694 31.75100939 323.18960229 32.96539307 332.32473755 C33.55793096 336.78492145 34.12787669 341.24799713 34.69921875 345.7109375 C34.81309937 346.59675003 34.92697998 347.48256256 35.04431152 348.3952179 C36.00810995 355.9411942 36.84606077 363.49504611 37.625 371.0625 C38.4498324 379.0393024 39.36037475 386.99083655 40.4375 394.9375 C43.39772155 417.01184029 46.21308953 439.23349291 46.82421875 461.51171875 C46.91649459 464.65012258 47.15324297 467.73759564 47.48828125 470.859375 C48.1863803 477.39969444 48.3712843 483.9513094 48.60546875 490.52148438 C48.773712 494.85809926 48.97558133 499.15147855 49.5 503.4609375 C50.29174029 510.0155208 50.38418889 516.61175784 50.60546875 523.20507812 C50.92403959 531.86690944 50.92403959 531.86690944 51.5 536.03515625 C52.1443765 541.14486049 52.31821033 546.23102561 52.5 551.375 C52.69999282 556.98961336 52.91695642 562.56923255 53.52734375 568.15625 C54.02913712 572.82879342 54.11661575 577.42941828 54.0625 582.125 C54.05798828 582.89070313 54.05347656 583.65640625 54.04882812 584.4453125 C54.03725564 586.29691037 54.01933155 588.14846688 54 590 C53.96503418 589.67745239 53.96503418 589.67745239 53.78808594 588.04516602 C48.59722211 540.33845693 48.59722211 540.33845693 45.07421875 516.68603516 C43.87561554 508.48309444 43.00996871 500.24798455 42.12475586 492.00634766 C41.37842435 485.1478771 40.52024137 478.32286416 39.5 471.5 C38.1331671 462.35930501 37.11170556 453.19650801 36.125 444.0078125 C35.37844847 437.14887036 34.52031455 430.32335357 33.5 423.5 C32.30637519 415.51763406 31.36186126 407.52478629 30.5 399.5 C29.65282727 391.62211612 28.73528496 383.77369239 27.5625 375.9375 C26.15788953 366.49938725 24.99864295 357.03733908 23.875 347.5625 C23.78864288 346.84383759 23.70228577 346.12517517 23.61331177 345.38473511 C22.60013284 336.93109523 21.75362794 328.50891768 21.2565918 320.00512695 C20.90327352 315.86716821 20.03872025 312.01638496 19 308 C18.67 308 18.34 308 18 308 C17.013702 342.75140438 16.82162862 377.49401014 16.79981136 412.25691938 C16.79699963 416.7014181 16.79275653 421.14591481 16.78830719 425.59041214 C16.77619542 437.96907855 16.76586073 450.34774344 16.7624321 462.72641563 C16.76221253 463.50776453 16.76199297 464.28911342 16.76176675 465.09413955 C16.76154847 465.87687269 16.76133019 466.65960582 16.7611053 467.46605814 C16.76066189 469.05110256 16.76021533 470.63614698 16.75976562 472.22119141 C16.7595442 473.00735488 16.75932277 473.79351836 16.75909463 474.60350497 C16.75511338 487.45139545 16.73752352 500.29923042 16.7144061 513.1470993 C16.69070275 526.42959568 16.6782318 539.71206395 16.67706418 552.99458182 C16.67615023 560.41709777 16.67046268 567.83953987 16.65224457 575.26203537 C16.63525638 582.20481827 16.63358194 589.14745816 16.64238358 596.09025574 C16.64315562 598.63519798 16.63878934 601.18014771 16.62892532 603.72507095 C16.61625995 607.19516899 16.62205236 610.66476295 16.63250732 614.13485718 C16.62445092 615.14210984 16.61639452 616.14936249 16.60809398 617.18713796 C16.64877717 622.95125785 17.37926248 626.8609726 20 632 C21.29041913 635.74536284 22.50352066 639.51092306 23.71875 643.28125 C25 647 25 647 26.5 650.5 C28.56838065 655.32622152 30.10909215 660.28718332 31.71875 665.28125 C32.98572292 668.95856165 34.44685964 672.43716429 36 676 C36.4125 677.216875 36.825 678.43375 37.25 679.6875 C38.96023282 684.32196511 41.51403272 688.3766113 44.046875 692.6015625 C46.16855529 696.29328621 48.06712965 700.05212085 49.9375 703.875 C53.17505592 710.48593668 56.70274658 716.86240075 60.43359375 723.20703125 C62 726 62 726 63 729 C63.99 729 64.98 729 66 729 C74.56806342 715.87023615 78.82482668 702.02203992 83 687 C83.24733887 686.11892578 83.49467773 685.23785156 83.74951172 684.33007812 C84.60319758 681.28581362 85.4543199 678.24127713 86.27612305 675.18823242 C87.53307413 670.53639353 89.00836541 666.0010043 90.5625 661.4375 C94.10595501 650.60088032 95.4365659 639.2560398 97 628 C97.14179687 626.98325195 97.28359375 625.96650391 97.4296875 624.91894531 C99.16763412 612.30653556 100.71587403 599.66699569 102 587 C102.08467529 586.20045898 102.16935059 585.40091797 102.2565918 584.57714844 C103.04674954 576.64475708 103.3250072 568.71574218 103.5625 560.75 C103.60568359 559.44675781 103.64886719 558.14351562 103.69335938 556.80078125 C104.49651853 531.07419128 101.66601806 514.51736544 89 492 C88.5678418 491.22914063 88.13568359 490.45828125 87.69042969 489.6640625 C86.18979284 486.9930023 84.68553661 484.32422364 83.16479492 481.66455078 C80.1526807 476.37078243 77.40609644 470.96256561 74.73730469 465.48852539 C74.43598633 464.87227295 74.13466797 464.25602051 73.82421875 463.62109375 C73.67561401 463.31675415 73.67561401 463.31675415 72.92358398 461.77661133 C72.02277358 460.04380739 70.98854913 458.3824507 69.953125 456.7265625 C67.2860801 452.11327821 66.2630228 447.08744881 65.0625 441.9375 C64.80509033 440.87241211 64.54768066 439.80732422 64.2824707 438.70996094 C62.48014044 431.20220029 60.78202966 423.67102003 59.10571289 416.13427734 C57.06607668 407.0694045 54.77646327 398.07002173 52.5 389.0625 C49.67922124 377.89922198 46.97988977 366.73353181 44.59936523 355.46630859 C43.25128781 349.09069535 41.73302581 342.78749803 40.10546875 336.4765625 C39.16531118 332.75669306 38.32283946 329.01834286 37.48828125 325.2734375 C37.22200928 324.08596924 36.9557373 322.89850098 36.68139648 321.67504883 C36.14922868 319.29100794 35.62385321 316.90543939 35.10571289 314.51831055 C34.86199951 313.43074463 34.61828613 312.34317871 34.3671875 311.22265625 C34.15175293 310.24047119 33.93631836 309.25828613 33.71435547 308.24633789 C33.47861816 307.50504639 33.24288086 306.76375488 33 306 C32.34 305.67 31.68 305.34 31 305 Z M1 656 C-2.70259083 661.88617003 -5.98981667 667.87933974 -9.04345703 674.12597656 C-11.68010825 679.46721204 -14.54249991 684.67012787 -17.4375 689.875 C-21.13484835 696.52847413 -24.66300118 703.22723214 -28.01147461 710.06201172 C-30.51673493 715.13362075 -33.22520662 720.07140843 -36 725 C-39.57179188 731.34479132 -42.96423422 737.74301768 -46.14990234 744.29052734 C-47.71042275 747.48473011 -49.32120935 750.60897594 -51.12109375 753.67578125 C-51.45173828 754.24490234 -51.45173828 754.24490234 -53.125 757.125 C-53.72570312 758.11757812 -54.32640625 759.11015625 -54.9453125 760.1328125 C-56 763 -56 763 -55.4921875 765.875 C-53.62863707 769.77772341 -51.40856359 773.28945884 -49 776.875 C-48.0013197 778.38587051 -47.00395374 779.8976105 -46.0078125 781.41015625 C-45.50411133 782.17344238 -45.00041016 782.93672852 -44.48144531 783.72314453 C-42.64158508 786.55085325 -40.87377539 789.41869972 -39.11230469 792.2956543 C-31.16934527 805.24292892 -21.99319774 816.38054661 -11.54296875 827.35986328 C-9.60075029 829.42439233 -7.72810513 831.54285031 -5.875 833.6875 C-1.38017016 838.88429319 -1.38017016 838.88429319 1 841 C1.66 841 2.32 841 3 841 C4.32981093 839.50890766 5.5869873 837.95293286 6.8125 836.375 C10.57316172 831.66657862 14.50096917 827.20519348 18.625 822.8125 C19.74743801 821.61462285 20.86983505 820.41670731 21.9921875 819.21875 C22.51522461 818.66058594 23.03826172 818.10242187 23.57714844 817.52734375 C26.47004882 814.42199289 29.25181768 811.23315567 32 808 C32.68191406 807.23171875 33.36382813 806.4634375 34.06640625 805.671875 C39.82680456 798.97979487 44.21331958 791.89717151 48.5546875 784.234375 C50.10026457 781.51268152 51.70885494 778.86961059 53.4453125 776.265625 C53.82421631 775.68989746 54.20312012 775.11416992 54.59350586 774.52099609 C55.61625837 772.98218837 56.65709247 771.45544132 57.69921875 769.9296875 C59.4335638 766.02350495 59.11740656 764.11468534 58 760 C56.64476451 757.02991638 55.03720962 754.24496265 53.375 751.4375 C52.45461558 749.8360213 51.53666506 748.23314148 50.62109375 746.62890625 C50.39607178 746.23582275 50.39607178 746.23582275 49.25732422 744.24658203 C47.53643387 741.17170185 45.98284831 738.04205501 44.4375 734.875 C41.60860492 729.11071025 38.52286637 723.54161281 35.34008789 717.96923828 C32.23831044 712.50656432 29.44839669 706.9363656 26.6796875 701.296875 C25.06104528 698.11981911 23.3233888 695.06329318 21.5 692 C19.0162829 687.82735527 16.76506058 683.60901741 14.625 679.25 C10.73092362 671.3199219 6.38952455 663.66424922 2 656 C1.67 656 1.34 656 1 656 Z " fill="#ffffff" transform="translate(539,308)"/>
<path d="M0 0 C0.99 0.33 1.98 0.66 3 1 C2.01 1.33 1.02 1.66 0 2 C0 1.34 0 0.68 0 0 Z " fill="#ffffff" transform="translate(146,446)"/>
<path d="M0 0 C4.47312085 0.40471093 6.84007357 3.54865999 9.75 6.625 C10.81443336 7.72196991 11.88084119 8.81702737 12.94921875 9.91015625 C13.46790527 10.44141113 13.9865918 10.97266602 14.52099609 11.52001953 C17.02004704 14.02072056 19.68041183 16.31699322 22.37890625 18.59765625 C24 20 24 20 25.3605957 21.46606445 C27.12129338 23.11349014 28.66092164 23.95424578 30.8515625 24.9453125 C31.61186768 25.2956958 32.37217285 25.6460791 33.15551758 26.00708008 C33.97044678 26.37599365 34.78537598 26.74490723 35.625 27.125 C41.42344767 29.79291602 47.11385073 32.54911822 52.69750977 35.64306641 C60.58691031 40.00532297 68.16808413 43.01286947 77 45 C77.89605957 45.20608887 78.79211914 45.41217773 79.71533203 45.62451172 C83.71179658 46.54314122 87.70851163 47.45859392 91.71362305 48.33886719 C92.62797119 48.5402832 93.54231934 48.74169922 94.484375 48.94921875 C95.30647461 49.12799561 96.12857422 49.30677246 96.97558594 49.4909668 C99 50 99 50 101 51 C120.60917508 53.64835935 140.76686627 53.19387655 160.5 53.1875 C161.09834152 53.18790787 161.09834152 53.18790787 164.12631226 53.18997192 C175.56992234 53.18909048 186.95196728 53.15089061 198.36376953 52.24731445 C205.26281677 51.77808289 212.17760768 51.69737665 219.08984375 51.5541687 C233.40593482 51.25563649 247.70601316 50.88397024 262 50 C262 50.66 262 51.32 262 52 C260.83984375 52.44730469 259.6796875 52.89460937 258.484375 53.35546875 C256.9062187 53.96606494 255.3280955 54.57674669 253.75 55.1875 C252.99203125 55.47947266 252.2340625 55.77144531 251.453125 56.07226562 C246.01216792 58.18063649 240.6225945 60.39677631 235.24023438 62.65014648 C214.84684348 71.14585612 194.45386392 79.11179393 173.19140625 85.16650391 C169.75846644 86.15066679 166.3782863 87.19558554 163.0234375 88.421875 C162.37721436 88.65447021 161.73099121 88.88706543 161.06518555 89.12670898 C159.32289824 89.76304822 157.58877722 90.4216265 155.85546875 91.08203125 C146.11834644 93.4003937 135.78569709 91.78607149 125.91723633 90.828125 C123.80555162 90.62432942 121.69299468 90.43273842 119.58007812 90.2421875 C97.36441158 88.18280459 76.18039427 80.09962185 57.84912109 67.28125 C55.86759328 65.90825581 53.85444409 64.59318609 51.83203125 63.28125 C41.42703546 56.45469827 32.94910451 48.68649874 24.90625 39.1640625 C23.46209263 37.52458877 21.94883037 35.94566419 20.40625 34.3984375 C12.85033117 26.77299372 8.32267773 18.7756576 4 9 C3.77248047 8.50177734 3.77248047 8.50177734 2.62109375 5.98046875 C1.7246709 3.99709414 0.85738314 2.00056065 0 0 Z " fill="#ffffff" transform="translate(74,498)"/>
<path d="M0 0 C-1.29066131 4.28322407 -2.93483346 7.86538948 -5.25 11.6875 C-5.81203125 12.61949219 -6.3740625 13.55148437 -6.953125 14.51171875 C-7.27571289 15.04112061 -7.59830078 15.57052246 -7.93066406 16.1159668 C-9 18 -9 18 -10.12402344 20.37817383 C-14.10770566 28.51954669 -19.60647808 34.34347136 -26.01171875 40.60864258 C-27.74918685 42.31170296 -29.46124905 44.03760231 -31.171875 45.76757812 C-37.30116687 51.88881211 -43.22220814 57.01816758 -51 61 C-52.0003125 61.556875 -53.000625 62.11375 -54.03125 62.6875 C-55.67708333 63.5625 -57.32291667 64.4375 -58.96875 65.3125 C-62 67 -62 67 -64.078125 68.40917969 C-71.07256416 73.01785222 -77.82681266 74.71316136 -86 76.25 C-87.2065625 76.49234375 -88.413125 76.7346875 -89.65625 76.984375 C-91.92020057 77.43716511 -94.18565612 77.88255418 -96.453125 78.31738281 C-98.40890425 78.69378416 -100.3631676 79.08008875 -102.30810547 79.50900269 C-108.12216747 80.76398407 -113.6828591 81.36762591 -119.625 81.4765625 C-120.07148895 81.48619774 -120.07148895 81.48619774 -122.33099365 81.53495789 C-125.22082711 81.5843729 -128.10979127 81.60962401 -131 81.625 C-131.49566467 81.62811691 -131.49566467 81.62811691 -134.00402832 81.64389038 C-153.32310779 81.67748574 -170.56877675 78.51229114 -189 73 C-190.837475 72.48317175 -192.67589141 71.96966744 -194.515625 71.4609375 C-197.29786337 70.68047596 -200.06447756 69.86906303 -202.8203125 69 C-204.72103595 68.40222948 -206.63063574 67.83028763 -208.5546875 67.3125 C-220.32502605 64.14203844 -231.81718767 58.7951636 -242.58984375 53.15234375 C-246.67678279 51.19829672 -250.94923407 49.72601698 -255.21484375 48.2109375 C-257.82230878 47.07725705 -259.2082656 46.16007004 -261 44 C-250.51403529 44.36637708 -240.16439692 45.14834115 -229.75 46.4375 C-207.49688814 49.12291041 -185.20338891 50.10893915 -162.8125 50.6875 C-161.92200958 50.71241516 -161.03151917 50.73733032 -160.11404419 50.76300049 C-148.08258823 51.08858452 -136.17957404 50.86077585 -124.16671753 50.1267395 C-121.20369522 49.95342112 -118.23890485 49.83433526 -115.2734375 49.7109375 C-100.48450067 48.94241129 -87.05991387 46.11229246 -72.90625 41.83447266 C-70.2806611 41.08058633 -67.67138671 40.45211168 -65 39.88671875 C-53.38920834 37.3516815 -45.37758779 32.01094633 -36.12548828 24.67236328 C-32.89672138 22.13192528 -29.57388515 19.72619612 -26.25 17.3125 C-25.04138376 16.42486425 -23.83304745 15.53684721 -22.625 14.6484375 C-18.85239439 11.88473677 -15.05544887 9.15574859 -11.25 6.4375 C-10.66508789 6.01960205 -10.08017578 5.6017041 -9.47753906 5.17114258 C-2.21881493 0 -2.21881493 0 0 0 Z " fill="#ffffff" transform="translate(1000,503)"/>
<path d="M0 0 C0.66 0.33 1.32 0.66 2 1 C1.01 1 0.02 1 -1 1 C-0.67 0.67 -0.34 0.34 0 0 Z " fill="#ffffff" transform="translate(276,682)"/>
<path d="M0 0 C0.66 0 1.32 0 2 0 C2 0.66 2 1.32 2 2 C1.34 2 0.68 2 0 2 C0 1.34 0 0.68 0 0 Z " fill="#ffffff" transform="translate(796,682)"/>
<path d="M0 0 C0.33 0.165 0.33 0.165 2 1 C1.67 1.165 1.67 1.165 0 2 C0 1.34 0 0.68 0 0 Z " fill="#ffffff" transform="translate(273,684)"/>
<path d="M0 0 C0 3 0 3 0 3 Z " fill="#ffffff" transform="translate(401,753)"/>
<path d="M0 0 C0.33 0.165 0.33 0.165 2 1 C1.67 1.99 1.34 2.98 1 4 C0.67 2.68 0.34 1.36 0 0 Z " fill="#ffffff" transform="translate(674,760)"/>
<path d="" fill="#ffffff" transform="translate(0,0)"/>
<path d="M0 0 C0.66 0 1.32 0 2 0 C2.44730469 1.09957031 2.89460937 2.19914063 3.35546875 3.33203125 C10.14585719 19.9649011 10.14585719 19.9649011 14 28 C14.31960693 28.69158203 14.63921387 29.38316406 14.96850586 30.09570312 C18.44573423 37.38229993 22.77957751 43.9572695 27.3125 50.625 C28.06109123 51.73531026 28.80914153 52.84598543 29.55664062 53.95703125 C31.36583353 56.64164008 33.18034539 59.32247625 35 62 C28.14835278 76.26558767 20.90968368 87.57939051 9.42578125 98.6171875 C6.70378887 101.24699645 4.27753754 103.96712723 2 107 C-3.39149076 105.50983749 -6.6261145 101.87047309 -10.4375 98 C-11.10837646 97.32227539 -11.77925293 96.64455078 -12.47045898 95.94628906 C-17.23890521 91.02168252 -20.9424168 86.15500462 -24 80 C-25.07994997 78.03979883 -26.16334631 76.08149286 -27.25 74.125 C-28.17418546 72.4207225 -29.09163439 70.71276165 -30 69 C-30.38671875 68.33742188 -30.7734375 67.67484375 -31.171875 66.9921875 C-32.22751193 64.45268357 -32.23273133 62.74214932 -32 60 C-30.84179688 57.75854492 -30.84179688 57.75854492 -29.21875 55.48046875 C-28.62795654 54.63154053 -28.03716309 53.7826123 -27.4284668 52.90795898 C-26.79207275 52.01020752 -26.15567871 51.11245605 -25.5 50.1875 C-19.47113009 41.40801009 -14.38881256 32.68595648 -10 23 C-9.8045459 22.57428711 -9.8045459 22.57428711 -8.81542969 20.41992188 C-1.46883853 4.40651558 -1.46883853 4.40651558 0 0 Z " fill="#ffffff" transform="translate(540,1010)"/>
</svg>
